<svg width="290" height="290" viewBox="0 0 290 290" fill="none" xmlns="http://www.w3.org/2000/svg">
<path d="M135.514 29L126.649 29.4814L117.813 30.5859L109.062 32.3418L100.51 34.7207L92.127 37.7227L83.999 41.3193L76.0977 45.4824L68.5928 50.2119L61.3994 55.4795L54.6025 61.2285L48.2588 67.459L42.3965 74.1426L37.0156 81.2227L32.1445 88.6992L27.8115 96.459L24.1016 104.559L20.9297 112.856L18.4092 121.381L16.5117 130.104L15.209 138.911L14.5859 147.775V156.696L15.209 165.532L16.5117 174.34L18.4092 183.062L20.9297 191.559L24.1016 199.885L27.8115 207.984L32.1445 215.744L37.0156 223.221L42.3965 230.301L48.2588 236.984L54.6025 243.215L61.3994 248.964L68.5928 254.231L76.0977 258.961L83.999 263.124L92.127 266.692L100.51 269.723L109.062 272.073L117.813 273.857L126.649 274.962L135.514 275.443L144.435 275.302L153.299 274.509L162.05 273.036L170.716 270.969L179.184 268.307L187.453 264.993L195.468 261.113L203.171 256.667L210.562 251.654L217.529 246.132L224.1 240.156L230.217 233.671L235.853 226.789L240.979 219.539L245.595 211.921L249.588 203.963L253.043 195.75L255.875 187.339L258.112 178.701L259.698 169.979L260.661 161.114L261.001 152.222L260.661 143.329L259.698 134.465L258.112 125.742L255.875 117.104L253.043 108.693L249.588 100.48L245.595 92.5225L240.979 84.9043L235.853 77.6543L230.217 70.7441L224.1 64.2871L217.529 58.2832L210.562 52.7891L203.171 47.7764L195.468 43.3301L187.453 39.4502L179.184 36.165L170.716 33.4746L162.05 31.4072L153.299 29.9629L144.435 29.1416L135.514 29ZM139.847 43.5L148.258 43.9814L156.612 45.1426L164.854 46.8984L172.953 49.334L180.798 52.3643L188.444 55.9893L195.723 60.209L202.689 64.9951L209.26 70.291L215.377 76.0684L221.041 82.3271L226.195 88.9824L230.84 96.0059L234.918 103.397L238.401 111.072L241.29 119.03L243.584 127.158L245.198 135.428L246.161 143.811L246.501 152.222L246.161 160.633L245.198 169.016L243.584 177.285L241.29 185.413L238.401 193.343L234.918 201.018L230.84 208.409L226.195 215.461L221.041 222.145L215.377 228.375L209.26 234.152L202.689 239.448L195.723 244.234L188.444 248.454L180.798 252.079L172.953 255.109L164.854 257.545L156.612 259.329L148.258 260.462L139.847 260.943L131.436 260.802L123.024 259.952L114.727 258.479L106.57 256.384L98.584 253.665L90.8242 250.323L83.376 246.415L76.2393 241.884L69.4707 236.871L63.127 231.32L57.208 225.288L51.7988 218.831L46.8994 211.978L42.5381 204.756L38.7432 197.223L35.5713 189.406L32.9941 181.363L31.04 173.15L29.7373 164.824L29.0859 156.441V148.002L29.7373 139.591L31.04 131.265L32.9941 123.08L35.5713 115.037L38.7432 107.221L42.5381 99.6875L46.8994 92.4658L51.7988 85.584L57.208 79.1553L63.127 73.123L69.4707 67.5723L76.2393 62.5312L83.376 58.0283L90.8242 54.1201L98.584 50.7783L106.57 48.0596L114.727 45.9355L123.024 44.4912L131.436 43.6416L139.847 43.5ZM137.751 86.9717C101.714 86.9717 72.501 116.185 72.501 152.222C72.501 188.258 101.714 217.472 137.751 217.472C152.415 217.443 166.641 212.474 178.136 203.368L169.187 192.068C160.231 199.132 149.157 202.973 137.751 202.972C109.723 202.972 87.001 180.25 87.001 152.222C87.001 124.193 109.723 101.472 137.751 101.472C149.154 101.493 160.218 105.354 169.158 112.432L178.192 101.019C166.675 91.9213 152.428 86.9725 137.751 86.9717Z" fill="#545454"/>
</svg>
