<svg width="390" height="420" viewBox="0 0 390 420" fill="none" xmlns="http://www.w3.org/2000/svg">
<path d="M285.477 134.321C283.474 116.181 279.605 98.203 275.792 80.38C274.89 76.162 273.983 71.945 273.076 67.729C270.955 44.082 265.129 23.423 239.305 16.488C224.946 12.632 208.792 16.35 196.333 25.621C190.58 29.902 185.6 35.263 181.791 41.8C177.689 48.841 175.427 56.892 174.382 65.213C173.783 69.982 173.474 74.792 173.125 79.591C172.763 84.569 172.432 89.549 172.113 94.531C171.47 104.56 170.993 114.601 170.567 124.645C170.144 134.632 169.897 144.621 169.779 154.618C169.665 164.214 169.49 173.836 168.35 183.359C168.001 186.278 167.548 189.182 167 192.062C176.858 191.809 186.716 191.713 196.578 191.647C216.754 191.512 236.93 191.415 257.107 191.353C265.787 191.326 274.466 191.299 283.146 191.272C283.138 191.138 283.13 191.002 283.124 190.871C283.119 190.772 283.113 190.673 283.108 190.573C283.875 190.385 284.59 189.835 284.699 189.031C287.145 170.89 287.487 152.524 285.477 134.321ZM274.751 94.858C274.745 94.768 274.74 94.677 274.734 94.586C275.296 97.805 275.854 101.024 276.449 104.236C278.084 113.067 279.712 121.914 280.803 130.835C281.895 139.77 282.434 148.772 282.463 157.775C282.48 162.886 282.322 167.999 281.99 173.1C281.491 166.703 280.916 160.314 280.291 153.931C278.365 134.251 276.063 114.61 274.751 94.858Z" fill="#0B0B0B"/>
<path d="M249.462 128.925C248.162 139.479 238.602 148.309 227.339 148.309C217.714 148.309 206.854 141.855 198.879 124.538C202.965 120.062 205.205 111.022 204.997 103.187C204.986 101.75 205.019 102.48 204.931 99.3625C204.144 98.2905 203.5 97.1415 204.734 94.8315C204.778 94.4335 204.494 93.5385 205.226 92.5775C205.914 91.6275 207.925 91.2405 209.137 92.5115C209.202 92.5885 209.268 92.6665 209.334 92.7655C209.487 92.9535 209.629 93.2075 209.738 93.6605C218.139 95.5395 230.015 97.7825 240.372 102.071C240.558 102.159 240.372 102.071 240.842 102.347H240.853C241.257 102.656 241.749 102.911 242.437 103.651H242.448C246.698 108.469 241.891 118.438 245.463 125.013C246.282 126.527 247.539 127.864 249.451 128.914C249.44 128.925 249.44 128.925 249.429 128.936C249.429 128.936 249.451 128.925 249.462 128.925Z" fill="#FFA069"/>
<path d="M245.463 125.014C231.588 125.567 215.856 120.616 210.765 109.907C210.219 108.724 209.673 107.553 209.17 106.393C209.29 104.05 209.268 101.696 209.192 99.3746C208.045 98.1706 208.089 96.2026 209.006 94.8216C209.006 94.6336 208.984 94.4236 208.984 94.2356C208.951 93.6386 209.093 93.1526 209.334 92.7656C209.487 92.9536 209.629 93.2076 209.738 93.6606C218.139 95.5396 230.015 97.7826 240.372 102.071C240.558 102.159 240.372 102.071 240.842 102.347H240.853C241.257 102.656 241.749 102.911 242.437 103.651H242.448C246.698 108.471 241.89 118.439 245.463 125.014Z" fill="#894F3C"/>
<path d="M268.01 99.5137C267.926 98.5227 267.864 98.2707 267.451 97.3657C267.275 96.9787 266.966 96.6407 266.701 96.3287C266.666 96.2877 266.627 96.2497 266.586 96.2147C266.294 95.9677 265.999 95.7167 265.673 95.5167C264.987 95.0967 264.136 94.8847 263.338 94.8867C262.504 94.8887 261.695 95.1057 260.964 95.5077C260.601 95.7077 260.26 95.9727 259.971 96.2697C259.956 96.2847 259.943 96.3027 259.929 96.3187C259.927 96.3197 259.926 96.3197 259.924 96.3207C259.337 96.6627 258.875 97.1307 258.536 97.7247C258.157 98.3137 257.988 99.2537 257.992 99.9347C257.996 100.681 258.204 101.326 258.547 101.976C258.59 102.057 258.64 102.131 258.693 102.205C258.942 102.549 259.238 103.023 259.597 103.322C259.906 103.58 260.23 103.873 260.589 104.077C260.937 104.275 261.323 104.416 261.705 104.536C261.779 104.559 261.855 104.573 261.932 104.585C262.102 104.611 262.726 104.736 263.085 104.72C263.516 104.7 263.975 104.674 264.386 104.521C264.71 104.401 265.231 104.236 265.569 103.992C265.864 103.779 266.347 103.467 266.622 103.126C266.855 102.836 267.216 102.436 267.401 102.045C267.589 101.647 267.8 101.222 267.879 100.779C267.936 100.454 268.044 99.9167 268.01 99.5137Z" fill="#F2E5DD"/>
<path d="M267.847 76.229C267.774 77.302 267.691 78.427 267.598 79.583C267.546 80.224 267.494 80.876 267.432 81.549C267.11 85.04 266.642 88.784 265.821 92.464C265.665 93.168 265.499 93.8729 265.312 94.5669C263.067 103.126 258.659 111.023 249.459 114.315C234.282 119.762 211.548 115.514 204.801 100.992C201.994 94.9559 199.822 89.089 198.242 83.431C197.65 81.254 197.13 79.1299 196.704 77.0169C188.783 37.8259 220.135 25.807 244.46 28.647C258.107 30.235 270.259 42.117 267.847 76.229Z" fill="#FFA069"/>
<path d="M226.257 90.0845C225.537 93.5795 220.961 95.5725 216.035 94.5335C211.109 93.4955 207.7 89.8205 208.42 86.3255C209.14 82.8305 213.716 80.8385 218.642 81.8765C223.568 82.9135 226.977 86.5885 226.257 90.0845Z" fill="#CC6F47"/>
<path d="M267.432 81.5502C267.11 85.0412 266.642 88.7852 265.821 92.4652C265.665 93.1692 265.499 93.8742 265.312 94.5682C260.852 94.8102 257.069 92.6442 256.601 89.4162C256.081 85.8832 259.688 82.4132 264.668 81.6662C265.623 81.5192 266.549 81.4872 267.432 81.5502Z" fill="#CC6F47"/>
<path d="M224.208 76.0589C224.03 78.9139 225.295 81.3899 227.035 81.5879C228.775 81.7859 230.331 79.6319 230.509 76.7769C230.688 73.9219 229.422 71.4459 227.682 71.2469C225.943 71.0499 224.387 73.2039 224.208 76.0589Z" fill="#0B0B0B"/>
<path d="M251.947 75.4411C251.729 78.2931 252.96 80.7871 254.697 81.0101C256.434 81.2331 258.019 79.1011 258.238 76.2491C258.457 73.3961 257.226 70.9031 255.489 70.6801C253.751 70.4571 252.166 72.5881 251.947 75.4411Z" fill="#0B0B0B"/>
<path d="M253.326 85.2665C252.617 82.9655 251.127 80.9865 250.243 78.7525C249.351 76.4975 248.747 74.1435 248.176 71.7885C247.531 69.1265 246.976 66.4155 246.452 63.7275C246.347 63.1855 245.501 63.3325 245.52 63.8695C245.619 66.7305 245.704 69.5405 246.109 72.3815C246.513 75.2165 247.279 77.9715 248.41 80.5985C248.952 81.8575 249.627 83.0375 250.249 84.2565C250.843 85.4205 251.478 86.7845 251.103 88.1185C250.401 90.6155 247.081 91.2255 244.962 91.7465C244.134 91.9495 244.36 93.2025 245.179 93.2045C247.525 93.2095 249.821 92.9595 251.683 91.3805C253.496 89.8435 254.019 87.5155 253.326 85.2665Z" fill="#894F3C"/>
<path d="M199.517 75.4244C196.911 73.3384 193.563 71.6154 190.143 71.9074C185.841 72.2744 182.798 75.7414 181.629 79.3584C179.951 84.5474 181.256 90.5244 185.088 94.9754C189.314 99.8844 199.196 104.536 205.883 101.422C212.584 98.3004 209.165 90.6074 207.124 85.5464C205.583 81.7234 202.966 78.1854 199.517 75.4244Z" fill="#FFA069"/>
<path d="M266.283 54.2728C266.001 52.7848 264.945 51.3638 263.798 50.4268C262.56 49.4158 261.037 48.8778 259.441 48.9568C257.902 49.0318 256.572 49.7428 255.408 50.7228C254.369 51.5968 253.498 52.7338 252.345 53.4588C252.034 53.6538 251.718 53.8148 251.366 53.9198C250.973 54.0368 250.562 54.1608 250.348 54.5518C250.069 55.0608 250.29 55.5318 250.667 55.8928C250.705 55.9618 250.744 56.0318 250.813 56.0948C252.843 57.9578 255.401 56.7418 257.388 55.5008C258.504 54.8038 259.697 53.9308 261.061 53.9028C262.444 53.8738 263.842 54.6418 265.057 55.2248C265.725 55.5458 266.423 55.0098 266.283 54.2728Z" fill="#0B0B0B"/>
<path d="M234.465 37.1227C234.454 37.2097 234.448 37.2997 234.436 37.3867C234.17 39.3937 233.749 41.3827 233.261 43.3347C233.016 44.3157 232.765 45.2947 232.505 46.2707C232.462 46.4337 232.42 46.6027 232.378 46.7707C233.363 46.5797 234.432 46.6017 235.396 46.4927C236.804 46.3327 238.209 46.2317 239.622 46.1337C240.932 46.0427 242.242 45.9397 243.551 45.8307C243.789 45.5597 244.019 45.2907 244.236 45.0257C246.27 42.5367 247.926 39.5317 249.019 36.3297C248.983 36.9017 248.935 37.4697 248.869 38.0317C248.643 39.9437 248.187 41.8827 247.501 43.6537C247.258 44.2817 246.973 44.9217 246.665 45.5527C247.088 45.5137 247.511 45.4787 247.935 45.4387C248.854 45.3517 249.772 45.2547 250.69 45.1627C251.732 43.2907 252.439 41.1577 252.849 39.0117C253.21 37.1207 253.392 35.1137 253.329 33.1187C253.902 34.6217 254.185 36.2467 254.283 37.8397C254.429 40.2117 254.247 42.6327 252.53 44.4227C252.315 44.6467 252.087 44.8507 251.853 45.0457C253.321 44.8967 254.79 44.7507 256.258 44.6047C256.306 44.5997 256.354 44.5937 256.402 44.5887C257.46 42.4867 257.695 40.0787 257.538 37.6427C257.332 34.4417 256.968 30.9017 255.168 28.1567C254.218 26.7077 252.709 25.1947 250.996 24.4317C250.879 24.2357 250.784 24.0267 250.657 23.8367C250.657 23.8367 237.861 20.3417 232.663 20.4477C227.41 20.5547 222.278 22.0057 217.905 25.3407C215.649 27.0607 213.576 29.0747 211.501 31.0547C209.324 33.1327 207.173 35.2427 205.031 37.3657C202.976 39.4017 200.847 41.3817 198.911 43.5597C196.978 45.7337 195.554 48.2417 194.429 51.0287C191.951 57.1687 190.517 63.8417 191.301 70.5907C191.342 70.9427 191.577 71.2017 191.864 71.3517C191.938 71.5387 192.062 71.7107 192.289 71.8237C194.896 73.1187 196.773 75.9927 198.011 78.7757C198.724 80.3777 199.302 82.0567 199.899 83.7157C200.357 84.9897 200.772 87.0087 202.217 87.2707C203.676 87.5357 204.634 85.7917 205.112 84.5087C205.632 83.1137 205.85 81.6267 205.937 80.1237C206.154 76.3757 206.16 72.5987 206.314 68.8447C206.342 68.1487 206.367 67.4517 206.392 66.7557C208.374 66.2677 210.284 65.3187 212.049 64.1647C213.6 63.1517 215.085 62.0147 216.538 60.8347C218.038 59.6167 219.563 58.4487 221.02 57.1637C226.497 52.3317 231.496 46.3847 233.943 38.9427C234.141 38.3447 234.311 37.7367 234.465 37.1227Z" fill="#0B0B0B"/>
<path d="M221.757 43.0805C220.471 45.6095 218.463 47.8615 216.364 49.7315C214.205 51.6545 211.817 53.1015 209.2 54.2835C208.778 54.4745 209.077 55.1095 209.494 55.0155C212.376 54.3695 215.144 52.8285 217.351 50.8665C218.45 49.8905 219.436 48.7705 220.28 47.5625C221.171 46.2885 221.821 44.8965 222.435 43.4695C222.63 43.0155 221.991 42.6195 221.757 43.0805Z" fill="#7B4B41"/>
<path d="M229.247 26.7217C227.442 30.6717 224.564 34.2027 221.485 37.2087C218.311 40.3067 214.722 42.8607 210.989 45.2177C208.861 46.5607 206.684 47.8327 204.456 48.9977C203.792 49.3447 204.362 50.2837 205.017 49.9977C213.208 46.4367 221.105 41.3457 226.308 33.8527C227.775 31.7397 228.918 29.4797 229.932 27.1147C230.131 26.6537 229.462 26.2517 229.247 26.7217Z" fill="#7B4B41"/>
<path d="M201.579 56.9839C201.496 56.6449 200.924 56.6999 200.964 57.0639C201.178 59.0129 201.129 60.9529 201.044 62.9079C200.959 64.8729 200.89 66.8739 200.62 68.8229C200.523 69.5249 201.518 69.8379 201.704 69.1109C202.219 67.0969 202.559 65.1089 202.515 63.0209C202.473 60.9879 202.06 58.9519 201.579 56.9839Z" fill="#7B4B41"/>
<path d="M198.588 64.0324C198.539 63.7264 198.156 63.5224 197.874 63.6104C197.547 63.7124 197.404 64.0054 197.457 64.3324C197.461 64.3564 197.486 64.5654 197.472 64.4294C197.477 64.4794 197.482 64.5284 197.486 64.5784C197.495 64.6944 197.5 64.8104 197.501 64.9274C197.502 65.1594 197.485 65.3924 197.468 65.6234C197.465 65.6724 197.459 65.7224 197.455 65.7714C197.452 65.7974 197.451 65.8064 197.451 65.8124C197.448 65.8344 197.445 65.8554 197.442 65.8774C197.424 65.9924 197.406 66.1084 197.384 66.2234C197.339 66.4504 197.294 66.6774 197.248 66.9034C197.213 67.0764 197.276 67.2564 197.433 67.3464C197.572 67.4264 197.794 67.4144 197.901 67.2824C198.643 66.3714 198.771 65.1624 198.588 64.0324Z" fill="#7B4B41"/>
<path d="M193.494 104.815C193.476 104.553 193.122 104.559 193.096 104.815C192.972 106.012 192.563 107.23 192.181 108.364C191.799 109.497 191.301 110.586 190.71 111.623C189.757 113.295 188.531 115.197 186.7 115.965C185.962 116.275 186.488 117.397 187.21 117.233C189.62 116.683 191.062 114.664 192.042 112.509C192.587 111.312 193.044 110.064 193.325 108.776C193.616 107.442 193.588 106.163 193.494 104.815Z" fill="#7B4B41"/>
<path d="M199.229 91.1013C198.864 89.9033 198.309 88.7593 197.566 87.7563C196.856 86.7983 196.07 85.9253 195.129 85.1933C194.611 84.7903 194.082 84.4093 193.525 84.0643C192.985 83.7303 192.409 83.5003 191.819 83.2693C190.637 82.8053 189.63 84.6443 190.581 85.4523C191.386 86.1373 191.977 86.5763 192.776 87.3433C193.127 87.6803 193.472 88.0293 193.794 88.3943C193.963 88.5853 194.127 88.7833 194.282 88.9853C194.295 89.0043 194.312 89.0273 194.329 89.0533C194.405 89.1653 194.482 89.2763 194.556 89.3903C194.83 89.8133 195.073 90.2563 195.281 90.7163C195.288 90.7323 195.329 90.8293 195.355 90.8893C195.382 90.9663 195.44 91.1243 195.448 91.1483C195.529 91.3873 195.599 91.6293 195.66 91.8743C195.72 92.1163 195.761 92.3603 195.807 92.6043C195.808 92.6163 195.81 92.6243 195.811 92.6383C195.822 92.7773 195.832 92.9153 195.838 93.0543C195.865 93.7603 195.75 94.5773 196.189 95.1803C196.863 96.1053 198.043 96.4183 198.939 95.5563C200.056 94.4833 199.634 92.4313 199.229 91.1013Z" fill="#894F3C"/>
<path d="M240.047 93.8584C239.034 93.4894 237.926 93.3924 236.86 93.5364C235.775 93.6824 234.799 94.1004 233.929 94.7684C233.398 95.1764 233.26 95.9264 233.584 96.5034C233.917 97.0964 234.605 97.3214 235.235 97.0904C235.33 97.0554 235.431 97.0284 235.525 96.9904C235.537 96.9854 235.54 96.9834 235.547 96.9804C235.561 96.9774 235.568 96.9764 235.586 96.9724C235.764 96.9344 235.941 96.9064 236.121 96.8804C236.303 96.8544 236.483 96.8224 236.666 96.8034C236.767 96.7934 236.87 96.7934 236.971 96.7814C237.161 96.7914 237.348 96.8004 237.537 96.8254C237.687 96.8454 237.957 96.8434 238.081 96.9264C238.017 96.9094 237.953 96.8924 237.888 96.8754C237.947 96.8924 238.005 96.9104 238.062 96.9294C238.139 96.9544 238.216 96.9824 238.292 97.0104C238.468 97.0754 238.644 97.1414 238.815 97.2194C238.881 97.2494 238.946 97.2804 239.011 97.3134C239.027 97.3214 239.026 97.3214 239.039 97.3274C239.138 97.3914 239.239 97.4534 239.335 97.5224C239.613 97.7234 239.896 97.9214 240.153 98.1484C240.643 98.5814 241.137 99.0084 241.609 99.4634C241.973 99.8144 242.626 99.7834 243.026 99.5534C243.502 99.2794 243.695 98.7974 243.672 98.2594C243.582 96.1724 241.898 94.5324 240.047 93.8584Z" fill="#894F3C"/>
<path d="M286.267 197.076C286.005 189.848 283.841 182.82 281.798 175.891C279.394 167.746 276.958 159.601 274.391 151.49C273.681 149.224 272.949 146.97 272.239 144.704C272.239 144.571 272.25 144.439 272.25 144.306C272.315 143.124 272.479 141.919 272.556 140.703C272.611 139.963 272.622 139.211 272.556 138.482C272.185 134.448 268.492 132.989 264.745 131.884C256.682 129.497 248.073 129.11 239.65 129C231.281 128.889 222.847 128.735 214.511 129.63C206.088 130.525 198.09 132.603 190.694 136.471C187.023 138.383 183.494 140.56 180.031 142.77C178.436 143.798 176.939 144.881 175.825 146.351C174.853 147.622 174.383 149.081 174.121 150.584C174.066 150.882 174.023 151.17 173.979 151.468C172.843 159.646 172.602 168.001 172.537 176.234C172.482 184.5 172.799 192.767 173.411 201.011C174.624 217.732 177.005 234.375 179.737 250.941C180.425 255.096 181.135 259.241 181.846 263.374C182.207 265.407 182.556 267.441 182.917 269.463C183.267 271.452 183.43 273.585 184.021 275.53C184.6 277.442 186.14 278.348 188.227 278.503C190.445 278.669 192.695 278.68 194.924 278.724C199.349 278.812 203.773 278.79 208.198 278.658C225.798 278.15 243.366 275.95 260.464 272.105C262.66 271.608 264.845 271.088 267.019 270.536C268.898 270.061 271.05 269.718 272.755 268.823C276.623 266.79 275.77 261.96 275.388 258.556C274.525 250.754 272.056 243.139 271.695 235.271C271.531 231.823 271.782 228.309 272.864 224.982C273.377 223.391 274.088 221.788 275.104 220.407C276.229 218.871 277.661 217.545 278.993 216.163C281.615 213.455 283.713 210.593 284.925 207.134C286.037 203.906 286.387 200.447 286.267 197.076Z" fill="#FFA069"/>
<path d="M369.846 112.968C367.115 109.675 362.187 108.382 358.2 107.608C349.078 105.807 339.649 107.531 330.964 110.537C324.19 112.891 317.548 115.797 310.567 117.367C308.59 117.82 306.579 118.163 304.525 118.351C302.121 118.572 299.751 118.616 297.347 118.318C294.998 118.031 292.682 117.379 290.311 117.312C285.777 117.202 281.385 116.66 276.851 117.224C274.699 117.489 272.525 117.688 270.394 118.108C268.122 118.55 265.969 119.335 263.85 120.252C263.424 120.44 262.998 120.639 262.583 120.849C262.343 120.971 262.113 121.092 261.884 121.225C261.491 121.435 261.097 121.656 260.704 121.888C259.677 122.485 258.672 123.115 257.656 123.734C257.35 123.922 257.044 124.099 256.738 124.276C255.853 124.806 254.946 125.304 254.018 125.724C253.341 126.033 252.652 126.31 251.942 126.531C251.745 126.597 251.549 126.653 251.352 126.697C250.838 126.83 250.314 126.94 249.79 126.995C249.353 127.05 248.916 127.072 248.468 127.061C247.583 127.05 246.709 126.895 245.879 126.531C244.065 125.746 242.569 128.2 244.328 129.294C244.415 129.349 244.514 129.394 244.601 129.449C244.382 129.858 244.273 130.344 244.372 130.908C246.262 141.473 248.906 151.884 252.304 162.04C255.057 170.373 258.313 178.54 262.038 186.497C262.18 186.829 262.333 187.149 262.486 187.481C263.262 189.117 265.359 188.708 266.222 187.481C267.435 185.768 268.789 184.199 270.264 182.729C271.302 181.701 272.405 180.718 273.541 179.789C275.988 177.767 278.632 175.976 281.331 174.307C282.817 173.379 284.313 172.495 285.81 171.633C293.775 167.036 301.99 162.803 310.545 159.432C314.62 157.818 318.936 156.327 323.306 154.846C343.66 147.939 365.401 141.286 371.115 125.007C372.512 121.035 372.709 116.415 369.846 112.968Z" fill="#FFA069"/>
<path d="M248.16 3.0356C248.29 3.5236 248.451 4.00261 248.64 4.47361C248.287 4.54561 247.933 4.6056 247.581 4.7026C247.091 4.8166 246.681 5.46561 246.873 5.96061C247.305 7.02661 247.761 8.07861 248.433 8.94161L248.44 8.94761C248.955 9.60661 249.601 10.1506 250.48 10.4856C252.095 11.1226 253.899 10.7036 255.551 10.4386C257.564 10.1196 259.584 9.80561 261.617 9.58361C261.736 9.69661 261.849 9.8166 261.974 9.9356L261.98 9.94161C262.359 10.3356 262.748 10.7156 263.114 11.1106C263.121 11.1166 263.121 11.1166 263.127 11.1216C263.246 11.2346 263.366 11.3726 263.462 11.5006C263.262 11.5106 263.05 11.5216 262.84 11.5576C261.722 11.7236 260.994 12.3616 260.203 13.1286C259.815 13.5236 259.426 13.9066 259.032 14.3086C259.02 14.3096 259.007 14.2986 258.995 14.2996C258.091 14.0356 257.066 13.9966 256.557 14.8566C256.159 15.5046 256.088 16.3666 256.123 17.1826C255.684 17.6246 255.233 18.0686 254.793 18.5106C253.722 19.5716 252.568 20.7306 251.632 21.7376L251.61 21.7636C250.477 22.9646 249.673 23.9356 249.703 24.2346C249.7 24.2776 249.709 24.3076 249.718 24.3506C249.719 24.3626 249.725 24.3566 249.725 24.3566C249.847 24.8946 250.464 26.1306 252.336 26.9426C252.789 27.1266 253.258 27.1316 253.697 26.9966C253.721 26.9946 253.739 26.9866 253.758 26.9916C254.376 26.8056 254.972 26.4176 255.508 26.0476C256.658 25.2826 257.811 24.4856 258.959 23.7086C259.054 23.8236 259.141 23.9336 259.23 24.0556L259.237 24.0616C259.446 24.3216 259.656 24.5816 259.872 24.8466C260.336 25.3936 260.816 25.9206 261.314 26.4396C261.393 26.5196 261.486 26.6106 261.566 26.7016L261.573 26.7076C261.699 26.8386 261.806 26.9536 261.932 27.0846C260.691 28.1466 259.431 29.2046 258.084 30.0966C257.615 30.3996 257.52 31.0356 257.9 31.4416C258.091 31.6286 258.269 31.7926 258.475 31.9356L258.488 31.9466C260.926 33.8146 264.206 32.8316 266.684 31.3286C266.742 31.3666 266.782 31.4126 266.84 31.4516C266.931 31.5176 267.009 31.5856 267.087 31.6526C268.289 32.6066 269.32 33.5496 269.988 34.9666C270.67 36.4186 271.294 37.9006 271.948 39.3736C272.593 40.8166 273.268 42.2506 273.956 43.6966C274.6 45.0476 275.109 46.1566 276.558 46.7766C279.149 47.8996 281.932 48.6746 284.669 49.3426C290.102 50.6876 295.811 51.5426 301.417 51.4086C301.532 51.4056 301.635 51.3906 301.717 51.3596C302.062 51.2576 302.264 50.9766 302.355 50.6666C302.753 50.4736 303.004 50.0286 303.063 49.5556C303.325 47.5826 303.575 45.6236 303.837 43.6506C303.931 42.8426 304.009 42.0786 303.698 41.3106C303.356 40.4586 302.637 39.8406 302.018 39.1836C300.881 37.9786 299.762 36.7776 298.642 35.5646C297.102 33.8876 295.572 32.1846 294.058 30.4626C289.379 25.1646 284.838 19.7576 280.227 14.3926C277.892 11.6786 275.533 8.97961 273.117 6.32161C271.982 5.07261 270.837 3.6216 269.472 2.6076C268.189 1.6296 266.59 1.65661 265.045 1.51261C261.574 1.18161 258.093 0.876607 254.627 0.527607C253.681 0.420607 252.736 0.325607 251.798 0.236607C251.031 0.157607 250.251 -0.0113931 249.497 0.000606943C247.73 0.0236069 247.828 1.7696 248.16 3.0356ZM264.714 19.4416L266.906 18.3196C266.906 18.3196 272.209 18.8136 272.519 18.8066C272.805 18.8016 267.324 21.8676 267.229 21.9676C267.212 21.9876 267.089 21.8926 266.925 21.7406C266.419 21.2716 265.433 20.2076 264.966 19.7036C264.815 19.5496 264.714 19.4416 264.714 19.4416Z" fill="#FFA069"/>
<path d="M292.14 46.4318C288.975 46.6798 285.877 45.9328 283.807 43.3328C281.689 40.6708 281.224 37.3578 280.665 34.0988C280.542 33.3818 280.414 32.6408 280.168 31.9538C279.854 31.0758 279.267 30.4938 278.582 29.8948C277.898 29.2968 277.209 28.7038 276.522 28.1088C276.179 27.8108 275.832 27.5168 275.492 27.2158C275.343 27.0838 275.114 26.7678 274.936 26.7038C274.615 26.5878 274.551 26.6758 274.246 26.8558C272.735 27.7448 271.259 28.7118 269.818 29.7128C268.407 30.6928 267.069 31.7978 265.544 32.5988C263.254 33.8008 258.768 34.3178 257.696 31.1698C257.666 31.0808 257.778 31.0358 257.838 31.0858C258.966 32.0198 260.409 32.5748 261.878 32.4008C263.426 32.2178 264.871 31.3228 266.127 30.4428C267.503 29.4788 268.838 28.4618 270.241 27.5378C270.934 27.0808 271.645 26.6548 272.364 26.2418C273.008 25.8718 273.754 25.3088 274.497 25.1748C275.128 25.0608 275.592 25.3998 276.064 25.7708C276.817 26.3638 277.533 27.0088 278.261 27.6328C279.451 28.6528 280.849 29.6018 281.457 31.1118C282.029 32.5338 281.989 34.1438 282.213 35.6438C282.46 37.2898 282.871 38.9698 283.628 40.4578C284.448 42.0688 285.656 43.4718 287.291 44.2648C288.825 45.0098 290.597 45.2468 292.255 45.5458C292.778 45.6408 292.611 46.3948 292.14 46.4318Z" fill="#894F3C"/>
<path d="M280.485 21.1308C278.779 21.1018 277.11 20.6208 275.477 20.1618C274.626 19.9228 273.742 19.5228 272.856 19.4558C272.034 19.3938 271.371 19.8238 270.728 20.2918C269.209 21.3958 267.73 22.5548 266.214 23.6628C265.442 24.2268 264.678 24.8028 263.899 25.3548C263.164 25.8758 262.392 26.4858 261.512 26.7178C261.364 26.7568 261.224 26.5898 261.308 26.4508C261.793 25.6518 262.61 25.0768 263.332 24.5098C264.142 23.8738 264.967 23.2548 265.785 22.6278C267.351 21.4278 268.913 20.1668 270.555 19.0758C270.585 19.0558 270.617 19.0388 270.648 19.0198C270.256 19.0178 269.863 19.0178 269.47 19.0218C268.388 19.0338 267.229 18.9498 266.162 19.1528C265.171 19.3418 264.299 20.2438 263.515 20.8348C261.75 22.1658 259.998 23.5158 258.207 24.8108C257.404 25.3918 256.58 25.9558 255.694 26.4018C255.285 26.6078 254.852 26.7858 254.411 26.9098C253.953 27.0388 253.55 26.9598 253.085 26.9998C252.963 27.0098 252.95 26.8288 253.057 26.7928C253.492 26.6448 253.933 26.3178 254.352 26.1178C254.811 25.8998 255.261 25.6468 255.696 25.3828C256.622 24.8218 257.477 24.1508 258.326 23.4788C260.167 22.0198 262.024 20.5788 263.876 19.1338C264.679 18.5068 265.365 18.0678 266.396 17.9728C267.451 17.8758 268.545 17.8708 269.602 17.9258C270.674 17.9818 271.748 18.0928 272.815 18.2028C273.801 18.3048 274.838 18.3728 275.74 18.8178C275.869 18.8808 275.894 18.9958 275.86 19.1008C277.432 19.5558 279.039 19.8948 280.576 20.4548C280.918 20.5778 280.892 21.1378 280.485 21.1308Z" fill="#894F3C"/>
<path d="M271.387 12.1805C270.259 12.1655 269.159 12.3365 268.026 12.2885C267.951 12.2855 267.875 12.2815 267.8 12.2775C267.712 12.3025 267.62 12.2985 267.522 12.2645C266.601 12.2195 265.68 12.1615 264.759 12.1345C262.58 12.0705 261.221 13.3955 259.821 14.9165C258.261 16.6115 256.682 18.3095 255.01 19.8915C254.208 20.6495 253.395 21.3955 252.584 22.1425C251.77 22.8925 250.955 23.8075 249.976 24.3345C249.689 24.4885 249.264 24.1555 249.488 23.8445C250.17 22.8975 251.182 22.1665 252.031 21.3745C252.91 20.5535 253.762 19.7035 254.605 18.8455C256.303 17.1175 258.005 15.4085 259.628 13.6065C260.917 12.1745 262.253 10.9985 264.264 10.9715C264.933 10.9625 265.607 11.0055 266.28 11.0575C266.099 10.8015 265.926 10.5445 265.761 10.3195C265.485 9.9415 265.341 9.5525 264.863 9.5065C264.38 9.4605 263.774 9.6545 263.292 9.7265C261.382 10.0095 259.488 10.3705 257.589 10.7175C254.456 11.2905 250.928 11.7275 248.371 9.3735C248.149 9.1695 248.449 8.7535 248.697 8.9435C251.848 11.3585 256.056 9.8125 259.53 9.1585C260.483 8.9785 261.439 8.8115 262.397 8.6575C263.257 8.5185 264.162 8.2965 265.034 8.2665C265.836 8.2395 266.223 8.8415 266.675 9.4195C267.08 9.9375 267.651 10.5545 267.96 11.1975C269.114 11.3125 270.229 11.5595 271.383 11.6725C271.7 11.7035 271.717 12.1855 271.387 12.1805Z" fill="#894F3C"/>
<path d="M268.302 3.06551C262.374 3.30751 256.489 3.78851 250.615 4.64251C250.264 4.69351 250.098 4.19051 250.462 4.08851C256.223 2.46851 262.331 1.80051 268.3 2.25051C268.812 2.28951 268.826 3.04351 268.302 3.06551Z" fill="#894F3C"/>
<path d="M371.324 115.306C369.887 110.817 366.907 106.666 364.354 102.76C361.832 98.9 359.116 95.173 356.276 91.547C350.565 84.255 344.327 77.389 337.78 70.86C324.703 57.822 310.463 45.844 295.743 34.756C293.923 33.385 292.071 32.058 290.238 30.705C288.511 29.43 286.383 31.868 288.059 33.296C288.614 33.769 289.173 34.236 289.729 34.707C287.619 36.67 287.714 39.949 288.755 42.747C289.497 44.742 290.711 46.548 291.789 48.367C293.132 50.631 294.479 52.893 295.82 55.159C298.453 59.607 301.356 63.883 303.979 68.34C306.624 72.834 309.073 77.445 311.326 82.152C315.406 90.676 318.138 99.765 322.21 108.303C326.143 116.551 330.916 124.805 336.979 131.653C339.851 134.897 343.11 137.694 347.472 138.501C351.413 139.23 355.563 138.279 359.122 136.528C366.858 132.721 374.291 124.575 371.324 115.306Z" fill="#FFA069"/>
<path d="M346 129.21C344.889 128.774 343.617 128.596 342.461 128.294C341.361 128.006 340.274 127.689 339.22 127.255C337.005 126.342 334.911 125.055 333.083 123.496C331.321 121.993 329.729 120.297 328.318 118.454C326.903 116.605 325.433 114.654 324.484 112.505C324.308 112.107 323.619 112.386 323.778 112.795C324.123 113.678 324.385 114.584 324.758 115.458C325.143 116.362 325.592 117.234 326.002 118.126C326.8 119.861 328.128 121.512 329.395 122.92C332.111 125.94 335.589 128.25 339.376 129.645C341.363 130.377 343.883 131.105 345.998 130.546C346.716 130.358 346.599 129.446 346 129.21Z" fill="#894F3C"/>
<path d="M286.264 197.077C286.002 189.849 283.838 182.821 281.795 175.892C280.134 170.256 278.452 164.609 276.715 158.983C275.95 156.485 275.175 153.988 274.388 151.49C273.678 149.224 272.946 146.97 272.236 144.704C272.236 144.571 272.247 144.439 272.247 144.306C272.312 143.124 272.476 141.919 272.553 140.703C269.418 141.057 266.282 141.399 263.147 141.742C260.241 142.073 257.346 142.383 254.44 142.703C235.561 144.77 216.661 146.748 197.749 148.494C194.898 148.759 192.057 149.025 189.205 149.268C187.435 149.434 185.676 149.588 183.906 149.743C180.639 150.03 177.384 150.307 174.117 150.583C174.062 150.881 174.019 151.169 173.975 151.467C172.839 159.645 172.598 168 172.533 176.233C172.478 184.499 172.795 192.766 173.407 201.01C174.226 212.304 175.581 223.577 177.22 234.805C177.318 235.468 177.417 236.142 177.515 236.805C178.203 241.524 178.957 246.232 179.733 250.94C179.766 251.139 179.799 251.327 179.831 251.526C180.487 255.482 181.164 259.439 181.841 263.373C182.202 265.406 182.551 267.44 182.912 269.462C183.262 271.451 183.425 273.584 184.016 275.529C184.595 277.441 186.135 278.347 188.222 278.502C190.44 278.668 192.69 278.679 194.919 278.723C199.344 278.811 203.768 278.789 208.193 278.657C225.793 278.149 243.361 275.949 260.459 272.104C262.655 271.607 264.84 271.087 267.014 270.535C268.893 270.06 271.045 269.717 272.75 268.822C275.175 267.551 275.744 265.175 275.733 262.755C275.733 261.296 275.525 259.826 275.383 258.556C274.52 250.754 272.051 243.139 271.69 235.271C271.526 231.823 271.777 228.309 272.859 224.982C273.318 223.545 273.941 222.109 274.804 220.827C274.902 220.683 275.001 220.54 275.099 220.407C276.224 218.871 277.656 217.545 278.988 216.163C281.61 213.455 283.708 210.593 284.92 207.134C286.034 203.907 286.384 200.448 286.264 197.077Z" fill="#F2E5DD"/>
<path d="M255.774 144.431C255.022 144.817 254.411 145.407 253.954 146.101C252.487 145.055 250.463 144.813 248.698 145.062C246.689 145.346 244.825 146.32 243.605 147.876C240.534 145.716 235.863 145.994 232.387 147.248C231.296 147.642 230.314 148.241 229.515 149.005C227.727 147.827 225.422 147.662 223.275 147.942C220.619 148.289 218.002 149.398 216.261 151.523C216.254 151.531 216.25 151.54 216.243 151.548C214.462 150.292 212.193 149.632 210.062 150.187C208.516 150.59 207.615 151.655 207.125 152.961C206.948 152.818 206.77 152.675 206.584 152.554C205.566 151.892 204.379 151.547 203.17 151.572C202.423 151.587 202.422 152.764 203.17 152.746C204.536 152.713 205.801 153.27 206.784 154.177C206.678 154.764 206.631 155.371 206.634 155.972C206.639 157.017 206.532 158.615 207.281 159.441C208.08 160.321 209.308 159.924 209.546 158.793C209.933 156.957 209.155 155.055 207.904 153.686C208.093 153.074 208.39 152.513 208.866 152.072C210.332 150.711 212.836 151.119 214.455 151.963C214.826 152.156 215.177 152.386 215.512 152.637C214.426 154.522 214.041 156.863 214.831 158.922C215.298 160.139 216.373 161.342 217.739 161.448C219.216 161.562 220.072 160.251 220.114 158.895C220.191 156.408 219.004 154.01 217.223 152.343C217.949 151.3 218.966 150.49 220.15 149.914C222.645 148.701 226.358 148.298 228.8 149.813C228.099 150.741 227.635 151.845 227.554 153.124C227.473 154.396 227.869 155.691 228.663 156.682C229.466 157.685 230.853 158.11 231.759 156.995C232.536 156.04 232.546 154.62 232.36 153.457C232.173 152.283 231.652 151.204 230.924 150.279C230.885 150.23 230.839 150.194 230.799 150.147C231.963 148.751 233.688 147.953 235.415 147.525C237.456 147.019 239.675 147.035 241.643 147.838C242.161 148.049 242.643 148.326 243.089 148.65C242.843 149.077 242.625 149.526 242.475 150.021C242.061 151.392 242.076 152.853 242.396 154.242C242.643 155.316 243.287 156.871 244.549 156.998C245.817 157.126 246.354 155.651 246.531 154.623C246.73 153.468 246.57 152.246 246.15 151.158C245.839 150.353 245.418 149.676 244.926 149.091C244.949 149.052 244.966 149.011 244.99 148.973C246.003 147.33 247.961 146.315 249.821 146.069C251.068 145.904 252.521 146.082 253.585 146.773C253.034 147.955 252.899 149.336 253.348 150.599C253.522 151.087 253.727 151.596 254.229 151.809C254.795 152.049 255.341 151.724 255.599 151.197C256.141 150.09 255.927 148.798 255.394 147.742C255.299 147.554 255.176 147.397 255.062 147.231C255.384 146.593 255.868 146.045 256.476 145.677C257.26 145.202 256.585 144.015 255.774 144.431ZM207.744 155.302C208.253 156.073 208.589 156.97 208.633 157.902C208.643 158.115 208.678 158.41 208.606 158.61C208.472 158.978 208.17 159.064 207.927 158.741C207.621 158.335 207.669 157.624 207.644 157.137C207.612 156.519 207.59 155.837 207.64 155.16C207.672 155.209 207.711 155.253 207.744 155.302ZM218.016 155.892C218.333 156.709 218.537 157.64 218.472 158.522C218.454 158.767 218.404 159.284 218.162 159.422C217.903 159.57 217.492 159.303 217.3 159.147C215.942 158.046 215.89 155.738 216.33 154.203C216.393 153.984 216.47 153.776 216.552 153.571C217.175 154.244 217.679 155.027 218.016 155.892ZM231.137 155.055C231.089 155.286 230.926 156.028 230.621 156.095C230.406 156.142 230.089 155.56 229.959 155.338C229.199 154.036 229.463 152.349 230.167 151.057C230.453 151.441 230.697 151.875 230.88 152.376C231.188 153.221 231.321 154.167 231.137 155.055ZM245.441 151.936C245.702 152.821 245.738 153.743 245.482 154.635C245.4 154.919 245.213 155.645 244.921 155.777C244.488 155.972 244.276 155.063 244.212 154.776C243.85 153.17 243.884 151.517 244.479 150.014C244.903 150.584 245.233 151.229 245.441 151.936ZM254.927 150.28C254.93 150.273 254.879 150.401 254.847 150.509C254.808 150.306 254.697 150.091 254.656 149.886C254.54 149.302 254.58 148.663 254.734 148.072C254.836 148.286 254.928 148.511 254.984 148.765C255.092 149.249 255.103 149.809 254.927 150.28Z" fill="#9F511C"/>
<path d="M186.506 153.373C186.795 150.344 186.146 147.266 186.861 144.265C186.878 144.196 186.915 144.1 186.951 144.017C186.997 143.678 187.044 143.124 186.997 143.314C187.099 142.895 187.255 142.459 187.477 142.092C187.822 141.518 188.343 140.989 188.855 140.56C190.046 139.563 191.34 138.777 192.736 138.111C194.27 137.379 195.852 136.742 197.435 136.127C198.13 135.857 198.835 135.615 199.533 135.353C199.831 135.241 200.129 135.127 200.425 135.009C200.508 134.976 200.591 134.942 200.674 134.908C202.242 134.189 203.753 133.338 205.28 132.534C205.294 132.391 205.319 132.25 205.331 132.107C205.528 129.72 205.495 127.3 205.233 124.913C205.157 124.283 204.883 123.83 204.501 123.52C204.894 122.846 205.244 122.15 205.517 121.398C206.238 119.442 203.452 118.381 202.567 120.227C200.906 123.664 197.115 126.007 193.346 126.405C193.007 126.449 192.658 126.471 192.319 126.471C191.674 126.482 191.052 126.405 190.451 126.272C188.768 125.907 187.261 125.067 185.666 124.249C185.448 124.139 185.218 124.017 185 123.907C182.946 122.835 180.892 121.686 178.74 120.857C173.562 118.868 168.339 119.321 163.292 121.542C158.66 123.575 154.683 126.681 151.22 130.372C143.267 138.86 141.311 150.309 140.24 161.515C139.792 166.212 139.377 170.909 138.973 175.605C138.296 183.429 137.651 191.254 137.007 199.078C136.482 205.355 134.549 231.249 134.582 237.548C134.604 242.742 134.811 247.947 136.385 252.932C137.838 257.563 140.799 261.795 144.961 264.293C154.062 269.763 160.518 268.316 165.074 263.155C168.45 259.353 170.777 253.518 172.372 246.965C172.394 246.899 172.416 246.832 172.427 246.766C175.781 232.764 178.228 216.618 180.533 200.185C181.942 190.084 183.297 179.873 184.783 169.97C185.074 168.006 184.857 165.391 185.682 163.434C185.577 160.085 186.189 156.695 186.506 153.373Z" fill="#FFA069"/>
<path d="M193.348 126.406C193.348 126.406 205.058 155.258 204.56 155.258C204.062 155.258 188.079 156.936 188.024 156.265C187.97 155.593 193.348 126.406 193.348 126.406Z" fill="#F2E5DD"/>
<path d="M192.801 157.203C193.053 155.951 193.31 154.698 193.566 153.446C193.662 150.858 193.672 148.268 193.569 145.674C193.546 145.083 193.498 144.495 193.437 143.907C193.42 143.745 193.401 143.583 193.382 143.422C193.382 143.422 193.328 143.002 193.319 142.938C193.178 141.998 193.003 141.063 192.794 140.136C192.38 138.297 191.833 136.491 191.2 134.717C190.58 132.979 189.945 131.248 189.269 129.531C188.708 128.104 188.097 126.695 187.63 125.236C186.978 124.924 186.33 124.588 185.667 124.248C183.395 123.088 181.122 121.773 178.74 120.855C173.562 118.866 168.339 119.319 163.292 121.54C158.66 123.573 154.683 126.679 151.22 130.37C143.267 138.858 141.311 150.307 140.24 161.513C139.792 166.21 139.377 170.907 138.973 175.603C143.977 178.543 148.871 181.648 153.766 184.742C160.867 189.262 168.001 193.749 175.463 197.65C177.135 198.534 178.828 199.374 180.532 200.181C180.751 200.292 180.958 200.391 181.177 200.49C181.985 200.866 182.805 201.231 183.624 201.606C183.646 201.617 183.679 201.628 183.701 201.639C183.832 201.694 183.974 201.75 184.116 201.805C186.585 189.759 188.89 177.691 191.152 165.601C191.676 162.795 192.233 159.999 192.801 157.203Z" fill="#F2E5DD"/>
<path d="M184.294 122.931C182.119 121.252 179.557 120.374 176.879 119.867C173.923 119.308 170.756 118.801 167.749 119.124C162.493 119.688 157.569 122.674 153.781 126.243C146.001 133.573 142.186 144.089 140.486 154.415C139.357 161.269 138.963 168.224 138.185 175.122C138.074 176.105 139.598 176.086 139.716 175.122C140.435 169.231 140.989 163.331 141.922 157.466C142.787 152.023 143.952 146.539 146.048 141.423C149.549 132.879 155.958 124.419 165.162 121.666C168.385 120.702 171.667 121.049 174.941 121.551C177.702 121.974 180.625 122.595 182.885 124.34C183.311 124.669 183.878 124.755 184.294 124.34C184.637 123.997 184.723 123.262 184.294 122.931Z" fill="white"/>
<path d="M184.074 142.417C183.185 137.967 181.74 133.61 179.461 129.684C179.272 129.359 178.834 129.636 178.971 129.965C182.096 137.463 183.119 145.495 183.075 153.584C183.029 161.995 181.987 170.322 181.136 178.677C180.611 183.833 180.155 188.993 179.715 194.157C179.658 194.819 180.754 194.971 180.865 194.307C182.377 185.298 183.657 176.246 184.506 167.147C185.272 158.937 185.699 150.555 184.074 142.417Z" fill="#9F511C"/>
<path d="M324.143 157.67C323.422 158.167 322.57 158.532 321.86 158.919C320.604 159.582 319.347 160.234 318.091 160.875C315.338 162.256 312.563 163.583 309.777 164.887C300.622 169.175 291.303 173.209 282.475 178.16C280.651 179.188 278.837 180.249 277.056 181.365C276.324 181.818 275.024 181.73 274.456 181C274.139 180.591 273.833 180.193 273.538 179.784C268.971 173.761 264.918 167.406 261.203 160.853C259.706 158.245 258.275 155.593 256.877 152.929C256.702 151.393 256.527 149.857 256.429 148.309C256.221 144.96 256.123 141.601 255.894 138.252C255.607 134.061 254.015 125.72 254.015 125.72C254.004 125.709 254.004 125.709 254.004 125.698C254.933 125.267 255.839 124.781 256.724 124.261C258.057 123.487 259.368 122.647 260.701 121.885C261.094 121.653 261.488 121.432 261.881 121.222C262.11 121.089 262.34 120.968 262.58 120.846C262.995 120.636 263.421 120.437 263.847 120.249C265.967 119.332 268.119 118.547 270.391 118.105C272.521 117.685 274.696 117.486 276.848 117.221C281.382 116.657 285.774 117.199 290.308 117.309C292.679 117.375 294.995 118.027 297.344 118.315C299.748 118.613 302.118 118.569 304.522 118.348C306.576 118.16 308.586 117.817 310.564 117.364C311.416 120.038 312.356 122.68 313.306 125.31C314.693 129.167 316.114 133.024 317.534 136.87C318.965 140.738 320.32 144.639 321.489 148.606C322.101 150.684 322.691 152.761 323.303 154.839C323.575 155.78 323.859 156.731 324.143 157.67Z" fill="#F2E5DD"/>
<path d="M309.3 116.598C302.449 118.67 295.342 118.075 288.366 117.072C284.855 116.568 281.323 116.033 277.768 116.027C274.313 116.021 270.974 116.622 267.789 117.972C266.011 118.726 264.336 119.673 262.673 120.65C260.863 121.714 259.029 122.739 257.25 123.855C256.82 124.125 257.187 124.724 257.635 124.526C260.913 123.08 264.136 121.514 267.43 120.103C270.587 118.751 273.879 118.063 277.311 118.02C284.333 117.932 291.199 119.885 298.218 119.994C302.126 120.055 306.063 119.643 309.811 118.507C311.027 118.139 310.519 116.23 309.3 116.598Z" fill="white"/>
<path d="M316.336 150.632C315.651 147.915 314.895 145.222 314.098 142.537C313.301 139.854 312.512 137.161 311.628 134.505C310.741 131.84 309.683 129.237 308.773 126.58C308.721 126.429 308.49 126.487 308.533 126.644C309.286 129.339 309.839 132.085 310.518 134.8C311.197 137.515 311.925 140.218 312.593 142.937C313.261 145.656 313.921 148.377 314.602 151.093C315.26 153.716 315.726 156.587 316.936 159.019C317.172 159.492 317.892 159.263 317.894 158.763C317.904 156.042 316.996 153.248 316.336 150.632Z" fill="#9F511C"/>
<path d="M322.54 155.025C316.968 157.828 311.397 160.631 305.825 163.434C303.046 164.832 300.29 166.274 297.525 167.698C294.923 169.038 292.342 170.404 289.892 172.01C287.227 173.757 284.72 175.771 282.431 177.984C281.996 178.405 282.627 178.977 283.078 178.629C287.63 175.125 292.525 172.219 297.676 169.681C303.177 166.971 308.675 164.261 314.156 161.512C317.287 159.942 320.419 158.371 323.55 156.8C324.731 156.208 323.713 154.435 322.54 155.025Z" fill="white"/>
<path d="M300.077 155.615C295.153 158.374 290.634 161.724 286.76 165.869C282.898 170 279.638 174.747 277.279 179.913C275.952 182.819 274.839 185.831 274.412 189.011C274.287 189.944 275.464 190.262 275.808 189.381C276.798 186.837 277.689 184.249 278.781 181.744C279.876 179.23 281.149 176.785 282.589 174.455C285.475 169.784 289.031 165.624 293.11 161.981C295.421 159.917 297.901 158.057 300.575 156.501C301.137 156.174 300.644 155.297 300.077 155.615Z" fill="#9F511C"/>
<path d="M233.62 58.4081C233.668 57.7271 232.758 57.3121 232.304 57.9911C231.387 59.3631 229.122 59.1631 227.729 59.0391C225.94 58.8801 224.098 58.5621 222.332 59.0781C219.355 59.9481 217.656 62.9211 216.903 65.7691C216.729 66.4291 217.527 66.8241 217.996 66.4031C219.291 65.2401 220.886 64.4821 222.635 64.4321C224.479 64.3801 226.268 65.0161 228.117 64.9141C229.646 64.8291 231.161 64.3051 232.117 63.0341C233.071 61.7661 233.393 60.2491 233.638 58.7111C233.656 58.6001 233.645 58.5001 233.62 58.4081Z" fill="#151515"/>
<path d="M193.436 211.178C190.148 225.003 185.493 238.497 179.834 251.527C179.801 251.328 179.768 251.14 179.736 250.941C178.851 245.57 177.999 240.188 177.223 234.806C177.474 234.132 177.726 233.458 177.966 232.773C181.145 223.888 183.8 214.803 185.832 205.576C187.864 196.348 189.175 187.618 189.798 178.345C190.213 172.035 190.301 165.691 190.006 159.359C189.864 156.254 189.624 153.148 189.296 150.054C189.274 149.8 189.241 149.535 189.209 149.269C188.75 145.114 188.062 140.572 187.253 136.184C186.488 132.095 185.789 127.995 185.002 123.906C185.22 124.017 185.45 124.138 185.668 124.248C187.263 125.066 188.771 125.906 190.453 126.271C191.054 126.404 191.677 126.481 192.321 126.47C192.66 126.47 193.009 126.448 193.348 126.404C194.277 129.697 195.129 133.024 195.817 136.383C196.626 140.406 197.281 144.439 197.751 148.495C197.871 149.457 197.97 150.418 198.068 151.39C198.144 152.086 198.21 152.794 198.265 153.49C199.892 172.808 197.893 192.369 193.436 211.178Z" fill="#FFBF00"/>
<path d="M273.604 241.887C273.965 249.756 274.521 250.754 275.384 258.556C275.526 259.827 275.734 261.297 275.734 262.755C275.745 265.175 275.177 267.551 272.751 268.822C271.047 269.717 268.894 270.06 267.015 270.535C264.841 271.088 262.656 271.607 260.46 272.104C243.362 275.95 225.794 278.149 208.194 278.657C203.769 278.79 199.345 278.812 194.92 278.723C192.691 278.679 190.441 278.668 188.223 278.502C186.136 278.347 184.596 277.441 184.017 275.529C183.427 273.584 183.263 271.451 182.913 269.462C182.552 267.44 182.203 265.406 181.842 263.373C181.165 259.439 180.487 255.482 179.832 251.526C179.799 251.327 179.766 251.139 179.734 250.94C178.958 246.232 178.204 241.524 177.516 236.805C178.794 234.418 180.018 232.009 181.121 229.511C183.514 224.085 185.6 218.172 187.294 212.171C188.966 206.225 190.167 200.169 191.063 194.047C191.937 188.002 192.341 181.868 192.953 175.79C192.942 175.713 192.92 175.646 192.909 175.58C192.658 173.834 193.848 171.535 195.749 171.27C203.069 170.253 210.345 168.927 217.621 167.634C229.158 165.578 240.706 163.667 252.298 162.031C253.696 161.832 255.084 161.644 256.482 161.456C258.055 161.246 259.628 161.047 261.202 160.848C263.627 160.528 266.064 160.229 268.5 159.942C268.347 159.633 268.183 159.345 268.041 159.036C266.053 154.947 263.889 150.924 261.573 147.023C259.792 144.017 257.891 141.1 255.892 138.248C255.28 137.375 254.658 136.502 254.024 135.64C252.888 134.093 251.325 132.236 250.025 130.159C249.435 129.208 248.823 128.137 248.463 127.054C248.911 127.065 249.348 127.043 249.785 126.988C250.309 126.933 250.834 126.822 251.347 126.69C251.544 126.646 251.74 126.591 251.937 126.524C252.647 126.303 253.335 126.027 254.013 125.717C254.002 125.706 254.002 125.706 254.002 125.695C254.931 125.264 255.837 124.778 256.722 124.258C256.733 124.258 256.733 124.258 256.733 124.269C257.203 125.109 257.651 125.971 258.208 126.778C258.274 126.866 258.776 127.541 258.929 127.751C258.94 127.773 258.951 127.784 258.973 127.806C259.213 128.138 259.476 128.469 259.716 128.801C260.546 129.884 261.366 130.978 262.174 132.083C264.84 135.763 267.276 139.62 269.516 143.576C271.778 147.555 273.766 151.644 275.514 155.865C275.94 156.893 276.322 157.932 276.672 158.982H276.716C280.452 171.403 285.803 184.103 286.265 197.076C286.917 215.36 272.585 219.64 273.604 241.887Z" fill="#FFBF00"/>
<path d="M151.632 419.598C159.419 419.58 167.206 419.562 174.993 419.544C187.254 419.515 199.515 419.499 211.776 419.485L222.66 371.347V419.474C234.521 419.464 246.383 419.457 258.244 419.453C269.186 419.449 280.129 419.446 291.071 419.442C291.535 404.356 287.431 349.285 286.823 335.795C285.731 311.825 284.911 287.633 279.896 264.094C277.154 251.23 273.144 238.61 267.026 226.961C267.736 224.806 266.513 221.855 263.803 222.065C244.64 223.557 225.62 226.729 206.643 229.757C204.239 230.144 201.825 230.542 199.411 230.928C197.849 231.182 196.035 231.337 194.484 231.945C192.955 231.636 191.239 232.277 190.485 233.724C184.574 245.229 178.74 256.755 173.07 268.37C167.531 279.72 161.752 290.992 157.447 302.895C153.219 314.609 150.422 326.777 147.877 338.944C145.255 351.454 142.895 364.02 140.787 376.629C138.414 390.912 136.376 405.261 134.648 419.642C140.308 419.574 145.972 419.611 151.632 419.598Z" fill="#FFBF00"/>
<path d="M205.545 100.463C205.542 100.443 205.539 100.424 205.535 100.404C205.532 100.391 205.53 100.378 205.528 100.365C205.4 100.048 205.273 99.73 205.145 99.413L204.826 98.99C204.646 98.675 204.401 98.426 204.089 98.245C203.898 98.097 203.799 97.987 203.622 97.896C203.584 97.876 203.545 97.859 203.505 97.842C203.167 97.696 202.821 97.54 202.472 97.42C202.425 97.404 202.378 97.39 202.33 97.379C202.288 97.369 202.246 97.361 202.204 97.354C201.844 97.294 201.465 97.247 201.102 97.212C201.083 97.21 201.065 97.209 201.046 97.207C200.708 97.251 200.371 97.295 200.033 97.338C200.021 97.34 200.009 97.341 199.997 97.343C199.913 97.366 199.095 97.706 199.024 97.745C198.999 97.759 198.974 97.772 198.95 97.787C198.935 97.796 198.921 97.806 198.906 97.815C198.754 97.915 198.611 98.026 198.474 98.147C198.163 98.329 197.917 98.577 197.738 98.891C197.632 99.032 197.526 99.172 197.42 99.313C197.376 99.422 197.332 99.531 197.288 99.64C197.284 99.645 197.279 99.652 197.276 99.657C197.242 99.708 197.212 99.761 197.186 99.817C197.064 100.078 196.939 100.401 196.842 100.672C196.831 100.703 196.82 100.735 196.811 100.767C196.761 100.951 196.749 101.172 196.727 101.346C196.703 101.538 196.657 101.756 196.665 101.958C196.666 101.986 196.669 102.014 196.671 102.042C196.698 102.341 196.738 102.668 196.788 102.964C196.799 103.03 196.814 103.094 196.834 103.157C196.887 103.319 196.965 103.49 197.024 103.637C197.084 103.786 197.148 103.962 197.219 104.117C197.244 104.173 197.274 104.227 197.307 104.279C197.405 104.43 197.538 104.591 197.636 104.72C197.734 104.85 197.846 105.013 197.961 105.148C198 105.194 198.043 105.237 198.09 105.276C198.369 105.51 198.657 105.736 198.958 105.94C199.014 105.978 199.069 106.013 199.13 106.042C199.275 106.112 199.502 106.196 199.59 106.232C199.679 106.269 199.9 106.369 200.052 106.421C200.094 106.435 200.135 106.448 200.178 106.457C200.196 106.46 200.214 106.463 200.232 106.466C200.458 106.502 200.938 106.572 201.164 106.586C201.205 106.589 201.246 106.589 201.287 106.586C201.443 106.574 201.748 106.526 201.777 106.522C201.801 106.519 202.115 106.491 202.268 106.457C202.297 106.45 202.326 106.443 202.354 106.433C202.507 106.383 202.794 106.253 202.822 106.242C202.951 106.189 203.15 106.116 203.304 106.042C203.336 106.027 203.367 106.009 203.396 105.99C203.408 105.982 203.42 105.973 203.432 105.964C203.633 105.82 204.043 105.503 204.236 105.344C204.26 105.324 204.284 105.304 204.307 105.283C204.329 105.262 204.35 105.239 204.37 105.216C204.383 105.201 204.395 105.184 204.408 105.169C204.609 104.914 204.857 104.6 205.039 104.331C205.074 104.28 205.104 104.226 205.13 104.17C205.203 104.011 205.286 103.783 205.331 103.671C205.366 103.584 205.476 103.335 205.532 103.17C205.547 103.126 205.557 103.084 205.564 103.038C205.636 102.573 205.742 102.062 205.686 101.579C205.647 101.21 205.607 100.833 205.545 100.463Z" fill="#FFFFFA"/>
<path d="M264.037 199.356C263.773 196.395 263.433 193.446 263.056 190.498C262.868 189.027 262.679 187.553 262.438 186.089C262.259 185.001 261.804 183.913 260.644 183.619C260.04 183.466 259.403 183.608 258.8 183.691C258.036 183.797 257.271 183.902 256.507 184.008C255.023 184.213 253.54 184.418 252.056 184.624C249.088 185.034 246.118 185.433 243.149 185.835C237.212 186.638 231.263 187.377 225.339 188.272C223.86 188.495 222.382 188.72 220.905 188.952C220.264 189.053 220.4 190.165 221.051 190.099C232.381 188.946 243.673 187.389 254.979 186.025C256.376 185.857 257.772 185.685 259.169 185.519C259.569 185.472 260.157 185.279 260.423 185.657C260.721 186.08 260.734 186.866 260.82 187.355C261.112 189.015 261.365 190.68 261.598 192.348C249.807 194.337 237.934 195.82 226.062 197.214C222.958 197.578 219.773 197.784 216.702 198.408C216.628 197.941 216.559 197.474 216.485 197.007C216.26 195.603 216.033 194.199 215.799 192.796C215.628 191.77 214.134 192.204 214.271 193.201C215.919 205.216 217.812 217.197 219.664 229.181C219.872 230.526 219.973 231.97 220.934 233.018C221.767 233.926 223.031 234.393 224.107 234.922C226.779 236.237 229.451 237.551 232.122 238.867C234.834 240.203 237.545 241.54 240.257 242.876C241.48 243.479 242.734 244.255 244.071 244.564C245.296 244.847 246.474 244.583 247.51 243.879C248.576 243.156 249.496 242.201 250.429 241.317C251.448 240.352 252.454 239.371 253.445 238.377C255.428 236.387 257.355 234.339 259.221 232.237C260.154 231.186 261.08 230.129 262.003 229.07C262.868 228.077 263.752 227.082 264.143 225.792C264.539 224.485 264.513 223.047 264.569 221.694C264.63 220.204 264.672 218.714 264.694 217.224C264.789 211.261 264.567 205.294 264.037 199.356ZM262.974 221.152C262.924 222.465 262.971 223.862 262.644 225.142C262.318 226.419 261.419 227.386 260.604 228.373C257.191 232.504 253.398 236.348 249.489 239.998C248.601 240.827 247.722 241.767 246.709 242.442C245.578 243.194 244.555 243.002 243.376 242.451C240.821 241.257 238.306 239.964 235.774 238.72C233.223 237.467 230.671 236.213 228.121 234.958L224.356 233.105C223.344 232.607 222.107 232.179 221.739 230.992C221.33 229.676 221.264 228.188 221.061 226.827C220.85 225.419 220.64 224.01 220.429 222.602C220.001 219.74 219.563 216.88 219.128 214.02C218.407 209.286 217.673 204.554 216.926 199.824C219.702 199.803 222.502 199.399 225.253 199.097C228.269 198.766 231.284 198.42 234.295 198.039C240.197 197.293 246.092 196.484 251.977 195.609C255.263 195.121 258.553 194.652 261.841 194.176C261.906 194.69 261.983 195.201 262.042 195.716C262.69 201.324 263.019 206.972 263.086 212.617C263.119 215.462 263.082 218.309 262.974 221.152Z" fill="#FF6D00"/>
<path d="M210.772 174.996C207.336 175.57 203.89 176.048 200.493 176.831C199.752 177.002 200.057 178.116 200.79 177.975C204.202 177.317 207.538 176.362 210.902 175.497C211.227 175.413 211.091 174.942 210.772 174.996Z" fill="#FF6D00"/>
<path d="M230.368 171.633C227.826 171.646 225.278 171.987 222.767 172.365C220.2 172.752 217.633 173.168 215.118 173.823C214.494 173.986 214.763 174.858 215.365 174.775C217.897 174.428 220.407 173.94 222.929 173.525C225.434 173.113 227.963 172.758 230.436 172.176C230.741 172.105 230.677 171.631 230.368 171.633Z" fill="#FF6D00"/>
<path d="M239.066 170.005C238.379 170.107 237.686 170.177 237.002 170.302C236.324 170.426 235.648 170.56 234.971 170.691C234.49 170.785 234.587 171.593 235.081 171.557C235.799 171.505 236.509 171.417 237.218 171.292C237.912 171.17 238.585 170.948 239.254 170.731C239.719 170.58 239.532 169.935 239.066 170.005Z" fill="#FF6D00"/>
<path d="M254.719 167.126C251.774 167.361 248.871 167.856 245.99 168.511C245.235 168.683 245.544 169.833 246.293 169.68C249.136 169.101 251.987 168.564 254.826 167.966C255.29 167.869 255.2 167.088 254.719 167.126Z" fill="#FF6D00"/>
<path d="M268.454 165.128C267.409 165.225 266.359 165.305 265.323 165.479C264.304 165.65 263.289 165.832 262.275 166.035C261.54 166.182 261.685 167.463 262.445 167.368C263.492 167.238 264.534 167.091 265.576 166.93C266.595 166.772 267.598 166.525 268.602 166.291C269.236 166.145 269.124 165.066 268.454 165.128Z" fill="#FF6D00"/>
<path d="M186.311 235.333C186.158 234.539 184.968 234.864 185.114 235.651C185.859 239.675 186.562 243.705 187.498 247.689C187.653 248.348 188.572 248.066 188.481 247.428C187.898 243.371 187.085 239.356 186.311 235.333Z" fill="#FF6D00"/>
<path d="M187.531 254.79C187.202 254.699 186.748 254.916 186.692 255.286C186.143 258.949 184.361 262.142 182.105 265.002C181.881 265.287 182.178 265.826 182.53 265.567C185.664 263.259 187.482 259.453 188.021 255.638C188.074 255.264 187.918 254.897 187.531 254.79Z" fill="#FF6D00"/>
<path d="M178.311 271.686C174.677 277.538 171.591 283.955 170.072 290.724C169.956 291.241 170.655 291.397 170.84 290.928C173.353 284.546 175.88 278.207 179.202 272.198C179.525 271.614 178.662 271.122 178.311 271.686Z" fill="#FF6D00"/>
<path d="M167.606 297.004C167.213 296.9 166.91 297.15 166.772 297.497C165.767 300.025 164.749 302.564 164.016 305.189C163.89 305.641 164.555 305.926 164.776 305.502C166.063 303.038 167.075 300.433 168.093 297.847C168.23 297.501 167.932 297.09 167.606 297.004Z" fill="#FF6D00"/>
<path d="M161.077 312.367L161.068 312.358C160.623 313.001 160.406 313.872 160.14 314.604C159.878 315.322 159.637 316.046 159.409 316.775C158.936 318.284 158.507 319.811 158.095 321.339C157.93 321.95 158.793 322.14 159.012 321.582C159.593 320.103 160.159 318.614 160.68 317.112C160.93 316.391 161.168 315.666 161.385 314.934C161.607 314.184 161.928 313.382 161.954 312.594C161.971 312.06 161.288 312.015 161.077 312.367Z" fill="#FF6D00"/>
<path d="M157.006 327.93C156.075 331.345 155.144 334.756 154.276 338.188C154.178 338.575 154.779 338.858 154.942 338.462C156.319 335.134 157.242 331.698 157.765 328.131C157.838 327.638 157.144 327.425 157.006 327.93Z" fill="#FF6D00"/>
<path d="M153.817 345.816C153.809 345.821 153.801 345.825 153.794 345.83C153.714 345.55 153.359 345.344 153.133 345.629C152.698 346.176 152.596 347.033 152.448 347.706C152.274 348.496 152.135 349.298 152.011 350.098C151.769 351.658 151.694 353.266 151.572 354.841C151.531 355.372 152.359 355.469 152.479 354.959C152.834 353.452 153.249 351.926 153.485 350.396C153.604 349.621 153.707 348.842 153.788 348.062C153.857 347.397 154.056 346.451 153.817 345.816Z" fill="#FF6D00"/>
<path d="M150.548 361.297C149.877 361.403 149.562 362.785 149.39 363.312C149.112 364.168 148.893 365.041 148.684 365.917C148.248 367.737 148.056 369.56 147.912 371.424C147.863 372.054 148.886 372.194 149.004 371.566C149.363 369.644 149.799 367.734 150.186 365.816C150.377 364.87 150.603 363.93 150.77 362.979C150.813 362.736 151.113 361.208 150.548 361.297Z" fill="#FF6D00"/>
<path d="M147.202 377.585C146.768 377.47 146.231 377.745 146.139 378.214C145.926 379.297 145.687 380.379 145.508 381.469C145.326 382.581 145.194 383.698 145.054 384.815C145.013 385.143 145.341 385.444 145.635 385.478C145.964 385.516 146.273 385.317 146.364 384.986C146.649 383.942 146.938 382.901 147.183 381.847C147.428 380.793 147.613 379.722 147.824 378.661C147.916 378.194 147.676 377.71 147.202 377.585Z" fill="#FF6D00"/>
<path d="M143.685 393.337C143.056 397.351 142.42 401.384 142.15 405.442C142.1 406.19 143.296 406.352 143.443 405.611C144.237 401.624 144.668 397.563 145.104 393.523C145.192 392.706 143.813 392.517 143.685 393.337Z" fill="#FF6D00"/>
<path d="M142.119 412.784C141.726 412.698 141.317 412.913 141.212 413.32C141.089 413.798 141.015 414.29 140.983 414.782C140.951 415.277 140.999 415.763 141.081 416.252C141.109 416.42 141.272 416.62 141.418 416.696C141.559 416.769 141.703 416.798 141.86 416.778C142.187 416.736 142.512 416.428 142.482 416.069C142.448 415.651 142.448 415.225 142.472 414.806C142.478 414.709 142.485 414.612 142.495 414.515C142.498 414.483 142.502 414.45 142.505 414.418C142.513 414.354 142.513 414.353 142.505 414.417C142.47 414.534 142.516 414.346 142.52 414.32C142.553 414.112 142.596 413.905 142.648 413.701C142.745 413.32 142.512 412.87 142.119 412.784Z" fill="#FF6D00"/>
<path d="M228.225 364.481C228.115 363.564 226.683 363.542 226.782 364.481C227.23 368.72 227.388 372.994 227.589 377.25C227.618 377.865 228.46 377.845 228.519 377.25C228.945 372.979 228.736 368.733 228.225 364.481Z" fill="#FF6D00"/>
<path d="M227.948 385.017C227.843 388.265 227.728 391.494 227.919 394.741C227.957 395.384 228.807 395.352 228.883 394.741C229.289 391.507 229.39 388.271 229.501 385.017C229.536 384.004 227.981 384.006 227.948 385.017Z" fill="#FF6D00"/>
<path d="M229.334 400.292C229.328 399.346 227.889 399.346 227.883 400.292C227.876 401.398 227.819 402.518 227.867 403.623C227.916 404.738 227.997 405.843 228.104 406.954C228.167 407.609 229.048 407.61 229.111 406.954C229.218 405.843 229.299 404.738 229.348 403.623C229.399 402.518 229.342 401.399 229.334 400.292Z" fill="#FF6D00"/>
<path d="M228.61 414.071C228.259 414.086 227.961 414.36 227.961 414.727V415.756C227.961 415.965 227.967 416.169 227.994 416.376C228.005 416.461 228.011 416.55 228.038 416.631C228.087 416.783 228.154 416.904 228.26 417.024C228.431 417.218 228.789 417.218 228.96 417.024C229.066 416.904 229.134 416.784 229.182 416.631C229.208 416.549 229.214 416.461 229.226 416.376C229.253 416.169 229.259 415.964 229.259 415.756V414.727C229.258 414.384 228.96 414.056 228.61 414.071Z" fill="#FF6D00"/>
<path d="M271.419 242.821C268.814 244.181 266.239 245.558 263.539 246.72C260.852 247.876 258.099 248.901 255.338 249.861C249.718 251.816 243.93 253.362 238.134 254.679C226.414 257.343 214.199 258.835 202.179 258.061C195.391 257.624 188.75 256.415 182.086 255.091C180.936 254.863 180.473 256.557 181.621 256.887C187.489 258.573 193.663 259.223 199.744 259.483C205.824 259.743 211.933 259.629 217.998 259.121C230.125 258.106 242.223 255.789 253.909 252.361C257.131 251.416 260.305 250.377 263.415 249.101C266.502 247.834 269.629 246.46 272.457 244.668C273.602 243.942 272.621 242.193 271.419 242.821Z" fill="#FF6D00"/>
<path d="M156.084 213.711C151.537 207.067 146.401 200.776 140.903 194.912C138.861 192.743 135.776 189.953 132.179 186.897C122.053 178.3 107.884 167.627 101.886 163.163C100.075 161.825 99.0144 161.039 99.0144 161.039C99.0144 161.039 84.2814 167.599 86.6234 171.781C87.4354 173.227 88.2554 174.65 89.0674 176.096C89.0674 176.096 89.0674 176.096 89.0784 176.095C97.0584 190.17 105.399 204.029 113.895 217.793C118.548 225.337 123.253 232.853 127.886 240.41C130.169 244.131 132.441 247.853 134.763 251.537C136.28 253.94 137.707 256.732 139.584 259.007C139.595 259.006 139.596 259.017 139.597 259.028C140.226 259.783 140.901 260.454 141.636 261.064C147.679 265.957 155.567 259.181 159.206 254.309C163.41 248.653 164.888 241.936 164.637 234.984C164.367 227.02 160.465 220.129 156.084 213.711Z" fill="#FFA069"/>
<path d="M103.17 164.481C102.75 164.037 102.329 163.594 101.888 163.164C97.2532 158.497 91.8392 154.469 86.2592 151.049C83.2022 149.156 80.0082 147.312 76.6782 145.949C74.8172 145.183 73.3682 145.718 71.5902 146.354C69.6812 147.005 67.7972 147.686 65.9172 148.401C64.0382 149.126 62.1412 149.887 60.2462 150.57C58.3722 151.239 56.6052 151.152 54.6782 150.905C54.5442 150.886 54.4012 150.879 54.2662 150.85C54.1982 150.835 54.0992 150.835 54.0322 150.82C53.1252 147.228 51.0572 143.351 47.2182 142.787C47.2072 142.788 47.1842 142.78 47.1732 142.781C46.8722 142.736 46.5512 142.715 46.2322 142.716C45.5202 142.737 45.0402 143.389 45.2012 144.083C45.6032 146.118 45.8032 148.219 45.9582 150.314C45.7492 150.314 45.5302 150.316 45.3112 150.328L45.3002 150.329C45.1442 150.313 45.0022 150.317 44.8492 150.322C43.9282 150.344 43.0312 150.374 42.1162 150.451C41.7022 150.485 41.2772 150.519 40.8552 150.576L40.8442 150.577C40.6582 150.586 40.4842 150.605 40.2892 150.626C39.9392 148.874 39.6112 147.12 39.2722 145.368C39.1102 144.563 38.9162 143.662 38.5202 142.926C38.5202 142.926 38.5082 142.916 38.5072 142.905C38.4952 142.895 38.4832 142.885 38.4822 142.874C38.2052 142.337 37.8002 141.925 37.2242 141.676C34.8032 140.704 33.1472 141.25 32.5592 141.613C32.4972 141.653 32.4562 141.68 32.4272 141.716C32.1232 141.96 31.9962 143.563 31.9452 145.68C31.9372 145.703 31.9382 145.714 31.9402 145.736C31.9522 145.746 31.9522 145.746 31.9422 145.758L31.9432 145.769C31.8952 147.497 31.8852 149.587 31.8902 151.51C31.9082 152.308 31.9172 153.119 31.9242 153.907C31.1522 154.613 30.4612 155.454 30.2302 156.391C29.9332 157.635 30.8832 158.521 31.9142 159.121C31.9262 159.131 31.9602 159.138 31.9722 159.148C31.9612 159.872 31.9792 160.57 31.9782 161.281C31.9952 162.691 32.0832 163.937 32.9412 165.089C33.0972 165.317 33.2832 165.519 33.4482 165.723C33.2422 165.745 33.0112 165.748 32.8132 165.747C32.8022 165.748 32.8022 165.748 32.7912 165.749C32.0902 165.769 31.4072 165.754 30.7162 165.762L30.7052 165.763C30.4952 165.752 30.2862 165.753 30.0782 165.753C28.4542 163.694 26.9242 161.582 25.4022 159.445C24.1402 157.692 22.8942 155.67 20.8662 154.778C19.7812 154.284 18.7032 154.167 17.6612 154.291L17.6502 154.292C16.2822 154.451 14.9422 154.974 13.5972 155.552C12.9762 155.808 12.7712 156.786 13.1142 157.327C13.3452 157.747 13.6152 158.117 13.8542 158.503C13.2762 158.754 12.7012 159.028 12.1422 159.355C10.7142 160.187 9.06919 161.677 10.6372 163.308C11.3052 164.014 12.1662 164.576 12.9132 165.196C13.8412 165.974 14.7802 166.75 15.7192 167.527C19.1502 170.368 22.5542 173.257 25.9682 176.144C27.4762 177.415 28.8852 178.896 30.9262 179.187C33.0492 179.524 35.3742 179.273 37.5072 179.187C42.0562 178.984 46.5892 178.728 51.0932 178.408C60.0272 177.798 68.9392 177.08 77.8752 176.592C81.6102 176.377 85.3282 176.209 89.0732 176.093C89.0732 176.093 89.0732 176.093 89.0842 176.092C90.3222 176.058 91.5612 176.036 92.8002 176.013C93.9402 175.99 95.1472 176.082 96.2102 175.633C97.1772 175.217 97.7892 174.462 98.4182 173.65C99.9432 171.651 101.479 169.651 103.003 167.642C103.369 167.158 103.546 166.539 103.345 165.994C103.589 165.536 103.627 164.965 103.17 164.481ZM42.1022 159.699C42.9662 159.661 44.8412 159.625 45.7022 159.666C45.9892 159.68 46.1552 159.695 46.1602 159.739C46.1572 159.917 48.3602 167.67 48.1022 167.409C47.8202 167.128 42.6302 162.721 42.6302 162.721L41.6532 159.715C41.6532 159.715 41.8292 159.706 42.1022 159.699Z" fill="#FFA069"/>
<path d="M90.4564 160.896C87.8314 157.784 84.3804 155.629 80.2014 156.078C75.9234 156.538 72.5504 159.093 69.1404 161.513C68.3894 162.046 67.6144 162.595 66.7814 162.988C65.7164 163.491 64.6684 163.478 63.5194 163.392C62.3704 163.306 61.2224 163.209 60.0744 163.118C59.5004 163.072 58.9264 163.02 58.3514 162.981C58.0994 162.964 57.6124 163.038 57.3944 162.934C57.0014 162.745 57.0234 162.608 56.9094 162.168C56.3444 159.989 55.8794 157.773 55.4764 155.558C55.0814 153.388 54.8644 151.175 54.2074 149.063C53.2214 145.893 49.6484 141.334 45.8764 143.187C45.7694 143.239 45.8314 143.383 45.9294 143.393C47.7774 143.582 49.5684 144.401 50.7344 145.897C51.9634 147.474 52.4644 149.598 52.8084 151.535C53.1854 153.657 53.4794 155.79 53.9164 157.901C54.1324 158.944 54.3914 159.976 54.6694 161.004C54.9184 161.924 55.0864 163.111 55.6344 163.91C56.1004 164.588 56.8194 164.707 57.5754 164.803C58.7814 164.957 59.9994 165.031 61.2114 165.134C63.1904 165.303 65.2944 165.726 67.1884 164.922C68.9714 164.165 70.3704 162.681 71.9094 161.538C73.5994 160.283 75.4674 159.148 77.4754 158.501C79.6494 157.801 81.9864 157.642 84.1644 158.42C86.2074 159.15 88.0124 160.555 89.7704 161.798C90.3244 162.189 90.8464 161.359 90.4564 160.896Z" fill="#894F3C"/>
<path d="M57.3417 172.59C55.7817 171.06 53.8517 169.969 51.9747 168.892C50.9967 168.331 49.8447 167.884 48.9887 167.135C48.1947 166.44 47.9817 165.449 47.8207 164.441C47.4407 162.062 47.1437 159.67 46.7687 157.29C46.5777 156.079 46.4047 154.864 46.1957 153.656C45.9987 152.517 45.8497 151.264 45.2647 150.253C45.1667 150.083 44.8907 150.105 44.8427 150.307C44.5667 151.468 44.7877 152.731 44.9317 153.9C45.0927 155.212 45.2827 156.521 45.4587 157.831C45.7957 160.339 46.0757 162.898 46.5797 165.378C46.5887 165.424 46.6027 165.468 46.6127 165.513C46.2577 165.157 45.9057 164.799 45.5547 164.436C44.5927 163.438 43.4757 162.456 42.6967 161.299C41.9737 160.225 41.9937 158.618 41.8167 157.371C41.4167 154.564 41.0457 151.751 40.5907 148.952C40.3867 147.697 40.1487 146.437 39.7507 145.228C39.5667 144.669 39.3357 144.114 39.0507 143.6C38.7547 143.067 38.3207 142.769 37.9387 142.31C37.8377 142.189 37.6647 142.341 37.7287 142.47C37.9867 143 38.0917 143.697 38.2907 144.258C38.5077 144.873 38.6877 145.512 38.8437 146.145C39.1767 147.495 39.3467 148.878 39.5097 150.257C39.8637 153.249 40.2487 156.238 40.6237 159.228C40.7867 160.525 41.0117 161.546 41.8537 162.571C42.7157 163.622 43.6947 164.624 44.6947 165.539C45.7077 166.467 46.7727 167.347 47.8307 168.222C48.8077 169.03 49.8017 169.915 51.0097 170.339C51.1817 170.399 51.3067 170.319 51.3697 170.194C53.1887 171.219 54.9367 172.381 56.8177 173.28C57.2377 173.482 57.7137 172.955 57.3417 172.59Z" fill="#894F3C"/>
<path d="M41.1783 172.335C40.1503 171.319 39.3143 170.162 38.2533 169.171C38.1823 169.105 38.1113 169.04 38.0403 168.974C37.9833 168.871 37.8963 168.791 37.7783 168.732C36.9103 167.933 36.0303 167.144 35.1783 166.328C33.1623 164.397 33.1223 161.966 33.2203 159.321C33.3293 156.373 33.4243 153.406 33.3313 150.458C33.2863 149.045 33.2203 147.632 33.1583 146.22C33.0953 144.802 33.1783 143.236 32.7693 141.87C32.6493 141.47 31.9693 141.381 31.8933 141.865C31.6623 143.339 31.9203 144.919 31.9773 146.406C32.0363 147.946 32.0433 149.488 32.0363 151.029C32.0213 154.132 32.0283 157.221 31.8793 160.323C31.7613 162.787 31.9133 165.063 33.6973 166.922C34.2913 167.541 34.9353 168.117 35.5873 168.685C35.1963 168.751 34.8113 168.823 34.4623 168.876C33.8773 168.964 33.4003 169.182 32.9303 168.787C32.4543 168.387 32.0833 167.66 31.7143 167.156C30.2493 165.159 28.8683 163.106 27.4703 161.06C25.1653 157.686 22.3823 154.074 17.9843 153.857C17.6023 153.838 17.5023 154.486 17.8933 154.541C22.8793 155.245 25.2853 160.475 27.8243 164.234C28.5213 165.266 29.2313 166.288 29.9543 167.301C30.6043 168.211 31.2193 169.236 31.9763 170.059C32.6733 170.816 33.5573 170.627 34.4803 170.52C35.3063 170.424 36.3693 170.39 37.2213 170.094C38.3613 171.044 39.5833 171.839 40.7223 172.79C41.0343 173.05 41.4793 172.632 41.1783 172.335Z" fill="#894F3C"/>
<path d="M30.2786 177.716C25.1646 172.089 20.3026 166.286 15.7836 160.157C15.5136 159.791 14.9156 160.092 15.1516 160.516C18.8876 167.23 23.7826 173.404 29.5496 178.445C30.0446 178.879 30.7306 178.214 30.2786 177.716Z" fill="#894F3C"/>
<path d="M165.787 224.757C163.898 220.879 161.394 217.337 158.732 213.946C155.918 210.361 152.976 206.862 149.944 203.456C148.198 201.494 146.427 199.553 144.589 197.675C143.699 196.765 142.796 195.863 141.872 194.988C140.89 194.059 139.837 193.208 138.85 192.285C138.612 192.062 138.313 192.422 138.518 192.653C140.029 194.354 141.434 196.154 142.919 197.879C144.378 199.574 145.854 201.255 147.318 202.946C150.235 206.316 153.099 209.732 155.867 213.223C160.911 219.583 165.842 226.618 166.979 234.826C167.579 239.16 167.085 243.566 165.296 247.585C165.007 248.234 165.904 248.647 166.277 248.065C170.78 241.032 169.238 231.841 165.787 224.757Z" fill="#894F3C"/>
<path d="M168.627 184.214C164.302 181.391 160.081 178.405 155.769 175.559C153.702 174.194 151.591 172.885 149.446 171.65C147.302 170.416 145.071 169.063 142.663 168.433C141.743 168.192 141.323 169.427 142.06 169.932C144.13 171.349 146.464 172.382 148.64 173.619C150.755 174.821 152.835 176.083 154.947 177.291C159.379 179.827 163.887 182.228 168.303 184.792C168.671 185.007 168.981 184.445 168.627 184.214Z" fill="#9F511C"/>
<path d="M155.201 73.7175C153.083 70.5785 148.801 68.8626 145.128 70.0336C143.308 70.6136 141.6 71.7036 140.376 73.1816C139.109 74.7126 138.598 76.6416 138.223 78.5566C137.807 80.6816 140.804 81.4806 141.48 79.4106C141.927 78.0426 143.04 77.0665 144.08 76.1185C144.919 75.3535 145.988 74.8546 147.125 74.7706C149.462 74.5966 151.445 76.3026 151.305 78.5896C151.213 80.0956 150.515 81.5815 149.953 82.9615C149.261 84.6606 148.671 86.2945 148.501 88.1355C148.174 91.6795 148.96 95.3345 151.134 98.1875C151.646 98.8595 152.869 98.5445 152.611 97.5865C151.485 93.4125 151.824 89.4816 153.789 85.6306C155.686 81.9146 157.87 77.6735 155.201 73.7175Z" fill="white"/>
<path d="M158.551 104C158.481 103.827 158.411 103.655 158.341 103.483C158.202 103.217 158.009 103.005 157.761 102.848C157.549 102.654 157.3 102.526 157.014 102.462C156.929 102.448 156.843 102.433 156.758 102.419C156.386 102.324 156.014 102.324 155.642 102.419C155.259 102.521 154.926 102.712 154.645 102.992L154.287 103.461C154.098 103.798 154.002 104.16 154.001 104.547C153.99 104.839 154.05 105.113 154.18 105.369C154.268 105.652 154.423 105.896 154.645 106.102C154.927 106.382 155.259 106.573 155.642 106.674C156.014 106.769 156.386 106.769 156.758 106.674C156.843 106.66 156.929 106.645 157.014 106.631C157.187 106.561 157.359 106.491 157.532 106.421C157.798 106.282 158.009 106.089 158.167 105.841C158.304 105.703 158.398 105.54 158.448 105.352C158.575 105.102 158.634 104.833 158.623 104.547C158.598 104.364 158.575 104.182 158.551 104Z" fill="white"/>
<path d="M322.499 214.481C322.492 210.694 319.894 206.882 316.192 205.806C314.358 205.273 312.332 205.225 310.492 205.77C308.586 206.334 307.086 207.651 305.707 209.032C304.177 210.564 306.219 212.898 307.934 211.557C309.068 210.671 310.536 210.482 311.928 210.274C313.051 210.106 314.217 210.289 315.208 210.853C317.245 212.012 317.94 214.533 316.548 216.354C315.632 217.553 314.224 218.397 312.988 219.229C311.466 220.254 310.065 221.281 308.898 222.714C306.65 225.474 305.265 228.946 305.478 232.527C305.528 233.37 306.719 233.791 307.039 232.852C308.432 228.76 310.905 225.685 314.684 223.584C318.331 221.556 322.509 219.254 322.499 214.481Z" fill="white"/>
<path d="M308.392 241.487C308.43 241.305 308.468 241.122 308.506 240.94C308.539 240.642 308.496 240.358 308.378 240.09C308.31 239.811 308.175 239.566 307.973 239.353C307.91 239.293 307.847 239.234 307.784 239.174C307.529 238.887 307.221 238.68 306.859 238.552C306.484 238.423 306.101 238.396 305.711 238.471L305.152 238.661C304.807 238.835 304.526 239.083 304.309 239.403C304.137 239.64 304.034 239.9 303.999 240.185C303.914 240.469 303.907 240.758 303.976 241.053C304.054 241.442 304.223 241.786 304.484 242.084C304.74 242.371 305.049 242.578 305.411 242.706C305.49 242.742 305.569 242.777 305.648 242.813C305.83 242.851 306.012 242.889 306.194 242.927C306.492 242.96 306.776 242.917 307.044 242.799C307.235 242.761 307.403 242.678 307.549 242.55C307.794 242.413 307.992 242.223 308.143 241.979C308.228 241.815 308.31 241.651 308.392 241.487Z" fill="white"/>
<path d="M297.831 93.6469C300.041 91.7399 302.249 89.6529 302.303 86.5159C302.35 83.7779 300.445 81.2519 297.82 80.5319C296.591 80.1949 295.197 80.3859 294.08 81.0049C293.001 81.6029 292.368 82.6199 291.754 83.6459C291.371 84.2859 292.362 84.8819 292.828 84.3409C293.894 83.1029 296.488 83.2689 297.629 84.3069C298.951 85.5089 298.846 87.1779 297.793 88.5169C296.391 90.2989 294.555 91.6099 293.475 93.6439C292.483 95.5109 291.65 98.2859 292.742 100.285C292.948 100.661 293.631 100.607 293.772 100.201C294.225 98.8919 294.308 97.5939 295.058 96.3739C295.737 95.2659 296.859 94.4859 297.831 93.6469Z" fill="white"/>
<path d="M293.107 103.598C291.189 103.598 291.188 106.575 293.107 106.575C295.025 106.574 295.025 103.598 293.107 103.598Z" fill="white"/>
</svg>
