<svg width="267" height="294" viewBox="0 0 267 294" fill="none" xmlns="http://www.w3.org/2000/svg">
<path d="M259.075 273.312H136.262V288.793H259.075V273.312Z" fill="#FFBF00"/>
<path d="M143.89 285.356C143.716 285.356 143.574 285.215 143.574 285.04V277.062C143.574 276.887 143.716 276.746 143.89 276.746C144.064 276.746 144.206 276.887 144.206 277.062V285.04C144.207 285.215 144.065 285.356 143.89 285.356Z" fill="white"/>
<path d="M152.144 285.356C151.97 285.356 151.828 285.215 151.828 285.04V277.062C151.828 276.887 151.97 276.746 152.144 276.746C152.318 276.746 152.46 276.887 152.46 277.062V285.04C152.46 285.215 152.318 285.356 152.144 285.356Z" fill="white"/>
<path d="M160.398 285.356C160.224 285.356 160.082 285.215 160.082 285.04V277.062C160.082 276.887 160.224 276.746 160.398 276.746C160.572 276.746 160.714 276.887 160.714 277.062V285.04C160.714 285.215 160.573 285.356 160.398 285.356Z" fill="white"/>
<path d="M168.656 285.356C168.482 285.356 168.34 285.215 168.34 285.04V277.062C168.34 276.887 168.482 276.746 168.656 276.746C168.831 276.746 168.972 276.887 168.972 277.062V285.04C168.972 285.215 168.83 285.356 168.656 285.356Z" fill="white"/>
<path d="M176.91 285.356C176.735 285.356 176.594 285.215 176.594 285.04V277.062C176.594 276.887 176.736 276.746 176.91 276.746C177.085 276.746 177.226 276.887 177.226 277.062V285.04C177.227 285.215 177.085 285.356 176.91 285.356Z" fill="white"/>
<path d="M185.164 285.356C184.989 285.356 184.848 285.215 184.848 285.04V277.062C184.848 276.887 184.99 276.746 185.164 276.746C185.339 276.746 185.48 276.887 185.48 277.062V285.04C185.48 285.215 185.339 285.356 185.164 285.356Z" fill="white"/>
<path d="M193.418 285.356C193.243 285.356 193.102 285.215 193.102 285.04V277.062C193.102 276.887 193.244 276.746 193.418 276.746C193.593 276.746 193.734 276.887 193.734 277.062V285.04C193.735 285.215 193.593 285.356 193.418 285.356Z" fill="white"/>
<path d="M201.671 285.356C201.496 285.356 201.355 285.215 201.355 285.04V277.062C201.355 276.887 201.496 276.746 201.671 276.746C201.846 276.746 201.987 276.887 201.987 277.062V285.04C201.987 285.215 201.846 285.356 201.671 285.356Z" fill="white"/>
<path d="M209.925 285.356C209.75 285.356 209.609 285.215 209.609 285.04V277.062C209.609 276.887 209.75 276.746 209.925 276.746C210.1 276.746 210.241 276.887 210.241 277.062V285.04C210.241 285.215 210.099 285.356 209.925 285.356Z" fill="white"/>
<path d="M218.183 285.356C218.008 285.356 217.867 285.215 217.867 285.04V277.062C217.867 276.887 218.008 276.746 218.183 276.746C218.358 276.746 218.499 276.887 218.499 277.062V285.04C218.499 285.215 218.358 285.356 218.183 285.356Z" fill="white"/>
<path d="M226.437 285.356C226.262 285.356 226.121 285.215 226.121 285.04V277.062C226.121 276.887 226.262 276.746 226.437 276.746C226.612 276.746 226.753 276.887 226.753 277.062V285.04C226.753 285.215 226.612 285.356 226.437 285.356Z" fill="white"/>
<path d="M234.691 285.356C234.516 285.356 234.375 285.215 234.375 285.04V277.062C234.375 276.887 234.516 276.746 234.691 276.746C234.866 276.746 235.007 276.887 235.007 277.062V285.04C235.007 285.215 234.866 285.356 234.691 285.356Z" fill="white"/>
<path d="M242.945 285.356C242.77 285.356 242.629 285.215 242.629 285.04V277.062C242.629 276.887 242.77 276.746 242.945 276.746C243.12 276.746 243.261 276.887 243.261 277.062V285.04C243.261 285.215 243.12 285.356 242.945 285.356Z" fill="white"/>
<path d="M251.199 285.356C251.023 285.356 250.883 285.215 250.883 285.04V277.062C250.883 276.887 251.024 276.746 251.199 276.746C251.374 276.746 251.515 276.887 251.515 277.062V285.04C251.515 285.215 251.375 285.356 251.199 285.356Z" fill="white"/>
<path d="M249.063 242.352H126.25V257.832H249.063V242.352Z" fill="#FFBF00"/>
<path d="M133.878 254.399C133.704 254.399 133.562 254.258 133.562 254.083V246.105C133.562 245.93 133.704 245.789 133.878 245.789C134.052 245.789 134.194 245.93 134.194 246.105V254.083C134.194 254.258 134.052 254.399 133.878 254.399Z" fill="white"/>
<path d="M142.132 254.399C141.958 254.399 141.816 254.258 141.816 254.083V246.105C141.816 245.93 141.958 245.789 142.132 245.789C142.306 245.789 142.448 245.93 142.448 246.105V254.083C142.449 254.258 142.306 254.399 142.132 254.399Z" fill="white"/>
<path d="M150.386 254.399C150.212 254.399 150.07 254.258 150.07 254.083V246.105C150.07 245.93 150.212 245.789 150.386 245.789C150.56 245.789 150.702 245.93 150.702 246.105V254.083C150.702 254.258 150.56 254.399 150.386 254.399Z" fill="white"/>
<path d="M158.644 254.399C158.47 254.399 158.328 254.258 158.328 254.083V246.105C158.328 245.93 158.47 245.789 158.644 245.789C158.818 245.789 158.96 245.93 158.96 246.105V254.083C158.96 254.258 158.818 254.399 158.644 254.399Z" fill="white"/>
<path d="M166.898 254.399C166.724 254.399 166.582 254.258 166.582 254.083V246.105C166.582 245.93 166.724 245.789 166.898 245.789C167.072 245.789 167.214 245.93 167.214 246.105V254.083C167.214 254.258 167.073 254.399 166.898 254.399Z" fill="white"/>
<path d="M175.152 254.399C174.978 254.399 174.836 254.258 174.836 254.083V246.105C174.836 245.93 174.978 245.789 175.152 245.789C175.327 245.789 175.468 245.93 175.468 246.105V254.083C175.468 254.258 175.326 254.399 175.152 254.399Z" fill="white"/>
<path d="M183.406 254.399C183.231 254.399 183.09 254.258 183.09 254.083V246.105C183.09 245.93 183.232 245.789 183.406 245.789C183.581 245.789 183.722 245.93 183.722 246.105V254.083C183.723 254.258 183.581 254.399 183.406 254.399Z" fill="white"/>
<path d="M191.66 254.399C191.485 254.399 191.344 254.258 191.344 254.083V246.105C191.344 245.93 191.486 245.789 191.66 245.789C191.835 245.789 191.976 245.93 191.976 246.105V254.083C191.976 254.258 191.835 254.399 191.66 254.399Z" fill="white"/>
<path d="M199.914 254.399C199.739 254.399 199.598 254.258 199.598 254.083V246.105C199.598 245.93 199.739 245.789 199.914 245.789C200.089 245.789 200.23 245.93 200.23 246.105V254.083C200.23 254.258 200.089 254.399 199.914 254.399Z" fill="white"/>
<path d="M208.168 254.399C207.993 254.399 207.852 254.258 207.852 254.083V246.105C207.852 245.93 207.993 245.789 208.168 245.789C208.343 245.789 208.484 245.93 208.484 246.105V254.083C208.484 254.258 208.343 254.399 208.168 254.399Z" fill="white"/>
<path d="M216.425 254.399C216.25 254.399 216.109 254.258 216.109 254.083V246.105C216.109 245.93 216.25 245.789 216.425 245.789C216.6 245.789 216.741 245.93 216.741 246.105V254.083C216.741 254.258 216.6 254.399 216.425 254.399Z" fill="white"/>
<path d="M224.679 254.399C224.504 254.399 224.363 254.258 224.363 254.083V246.105C224.363 245.93 224.504 245.789 224.679 245.789C224.854 245.789 224.995 245.93 224.995 246.105V254.083C224.996 254.258 224.855 254.399 224.679 254.399Z" fill="white"/>
<path d="M232.933 254.399C232.758 254.399 232.617 254.258 232.617 254.083V246.105C232.617 245.93 232.758 245.789 232.933 245.789C233.109 245.789 233.249 245.93 233.249 246.105V254.083C233.249 254.258 233.109 254.399 232.933 254.399Z" fill="white"/>
<path d="M241.187 254.399C241.012 254.399 240.871 254.258 240.871 254.083V246.105C240.871 245.93 241.012 245.789 241.187 245.789C241.363 245.789 241.503 245.93 241.503 246.105V254.083C241.503 254.258 241.362 254.399 241.187 254.399Z" fill="white"/>
<path d="M242.925 195.914H120.113V211.394H242.925V195.914Z" fill="#FFBF00"/>
<path d="M127.746 207.96C127.572 207.96 127.43 207.819 127.43 207.644V199.664C127.43 199.489 127.572 199.348 127.746 199.348C127.92 199.348 128.062 199.489 128.062 199.664V207.644C128.062 207.819 127.92 207.96 127.746 207.96Z" fill="white"/>
<path d="M136 207.96C135.826 207.96 135.684 207.819 135.684 207.644V199.664C135.684 199.489 135.826 199.348 136 199.348C136.174 199.348 136.316 199.489 136.316 199.664V207.644C136.316 207.819 136.175 207.96 136 207.96Z" fill="white"/>
<path d="M144.253 207.96C144.079 207.96 143.938 207.819 143.938 207.644V199.664C143.938 199.489 144.079 199.348 144.253 199.348C144.427 199.348 144.569 199.489 144.569 199.664V207.644C144.569 207.819 144.427 207.96 144.253 207.96Z" fill="white"/>
<path d="M152.507 207.96C152.333 207.96 152.191 207.819 152.191 207.644V199.664C152.191 199.489 152.333 199.348 152.507 199.348C152.682 199.348 152.823 199.489 152.823 199.664V207.644C152.824 207.819 152.682 207.96 152.507 207.96Z" fill="white"/>
<path d="M160.765 207.96C160.591 207.96 160.449 207.819 160.449 207.644V199.664C160.449 199.489 160.591 199.348 160.765 199.348C160.94 199.348 161.081 199.489 161.081 199.664V207.644C161.081 207.819 160.94 207.96 160.765 207.96Z" fill="white"/>
<path d="M169.019 207.96C168.844 207.96 168.703 207.819 168.703 207.644V199.664C168.703 199.489 168.845 199.348 169.019 199.348C169.194 199.348 169.335 199.489 169.335 199.664V207.644C169.336 207.819 169.194 207.96 169.019 207.96Z" fill="white"/>
<path d="M177.273 207.96C177.098 207.96 176.957 207.819 176.957 207.644V199.664C176.957 199.489 177.099 199.348 177.273 199.348C177.448 199.348 177.589 199.489 177.589 199.664V207.644C177.589 207.819 177.448 207.96 177.273 207.96Z" fill="white"/>
<path d="M185.527 207.96C185.352 207.96 185.211 207.819 185.211 207.644V199.664C185.211 199.489 185.352 199.348 185.527 199.348C185.702 199.348 185.843 199.489 185.843 199.664V207.644C185.844 207.819 185.702 207.96 185.527 207.96Z" fill="white"/>
<path d="M193.781 207.96C193.606 207.96 193.465 207.819 193.465 207.644V199.664C193.465 199.489 193.606 199.348 193.781 199.348C193.956 199.348 194.097 199.489 194.097 199.664V207.644C194.097 207.819 193.956 207.96 193.781 207.96Z" fill="white"/>
<path d="M202.035 207.96C201.86 207.96 201.719 207.819 201.719 207.644V199.664C201.719 199.489 201.86 199.348 202.035 199.348C202.21 199.348 202.351 199.489 202.351 199.664V207.644C202.352 207.819 202.211 207.96 202.035 207.96Z" fill="white"/>
<path d="M210.293 207.96C210.118 207.96 209.977 207.819 209.977 207.644V199.664C209.977 199.489 210.118 199.348 210.293 199.348C210.468 199.348 210.609 199.489 210.609 199.664V207.644C210.609 207.819 210.468 207.96 210.293 207.96Z" fill="white"/>
<path d="M218.546 207.96C218.371 207.96 218.23 207.819 218.23 207.644V199.664C218.23 199.489 218.371 199.348 218.546 199.348C218.721 199.348 218.862 199.489 218.862 199.664V207.644C218.862 207.819 218.721 207.96 218.546 207.96Z" fill="white"/>
<path d="M226.8 207.96C226.625 207.96 226.484 207.819 226.484 207.644V199.664C226.484 199.489 226.625 199.348 226.8 199.348C226.975 199.348 227.116 199.489 227.116 199.664V207.644C227.116 207.819 226.975 207.96 226.8 207.96Z" fill="white"/>
<path d="M235.054 207.96C234.878 207.96 234.738 207.819 234.738 207.644V199.664C234.738 199.489 234.879 199.348 235.054 199.348C235.229 199.348 235.37 199.489 235.37 199.664V207.644C235.37 207.819 235.229 207.96 235.054 207.96Z" fill="white"/>
<path d="M236.464 180.434H113.652V195.914H236.464V180.434Z" fill="#FFBF00"/>
<path d="M121.281 192.477C121.107 192.477 120.965 192.336 120.965 192.161V184.183C120.965 184.007 121.107 183.867 121.281 183.867C121.455 183.867 121.597 184.008 121.597 184.183V192.161C121.597 192.336 121.455 192.477 121.281 192.477Z" fill="white"/>
<path d="M129.535 192.477C129.361 192.477 129.219 192.336 129.219 192.161V184.183C129.219 184.007 129.361 183.867 129.535 183.867C129.709 183.867 129.851 184.008 129.851 184.183V192.161C129.851 192.336 129.709 192.477 129.535 192.477Z" fill="white"/>
<path d="M137.789 192.477C137.615 192.477 137.473 192.336 137.473 192.161V184.183C137.473 184.007 137.615 183.867 137.789 183.867C137.963 183.867 138.105 184.008 138.105 184.183V192.161C138.106 192.336 137.964 192.477 137.789 192.477Z" fill="white"/>
<path d="M146.046 192.477C145.871 192.477 145.73 192.336 145.73 192.161V184.183C145.73 184.007 145.872 183.867 146.046 183.867C146.22 183.867 146.362 184.008 146.362 184.183V192.161C146.362 192.336 146.22 192.477 146.046 192.477Z" fill="white"/>
<path d="M154.3 192.477C154.125 192.477 153.984 192.336 153.984 192.161V184.183C153.984 184.007 154.126 183.867 154.3 183.867C154.474 183.867 154.616 184.008 154.616 184.183V192.161C154.616 192.336 154.474 192.477 154.3 192.477Z" fill="white"/>
<path d="M162.554 192.477C162.379 192.477 162.238 192.336 162.238 192.161V184.183C162.238 184.007 162.379 183.867 162.554 183.867C162.729 183.867 162.87 184.008 162.87 184.183V192.161C162.87 192.336 162.729 192.477 162.554 192.477Z" fill="white"/>
<path d="M170.808 192.477C170.633 192.477 170.492 192.336 170.492 192.161V184.183C170.492 184.007 170.633 183.867 170.808 183.867C170.983 183.867 171.124 184.008 171.124 184.183V192.161C171.124 192.336 170.983 192.477 170.808 192.477Z" fill="white"/>
<path d="M179.062 192.477C178.887 192.477 178.746 192.336 178.746 192.161V184.183C178.746 184.007 178.887 183.867 179.062 183.867C179.237 183.867 179.378 184.008 179.378 184.183V192.161C179.379 192.336 179.237 192.477 179.062 192.477Z" fill="white"/>
<path d="M187.316 192.477C187.141 192.477 187 192.336 187 192.161V184.183C187 184.007 187.141 183.867 187.316 183.867C187.491 183.867 187.632 184.008 187.632 184.183V192.161C187.632 192.336 187.491 192.477 187.316 192.477Z" fill="white"/>
<path d="M195.574 192.477C195.399 192.477 195.258 192.336 195.258 192.161V184.183C195.258 184.007 195.399 183.867 195.574 183.867C195.749 183.867 195.89 184.008 195.89 184.183V192.161C195.89 192.336 195.749 192.477 195.574 192.477Z" fill="white"/>
<path d="M203.828 192.477C203.653 192.477 203.512 192.336 203.512 192.161V184.183C203.512 184.007 203.653 183.867 203.828 183.867C204.003 183.867 204.144 184.008 204.144 184.183V192.161C204.144 192.336 204.004 192.477 203.828 192.477Z" fill="white"/>
<path d="M212.082 192.477C211.907 192.477 211.766 192.336 211.766 192.161V184.183C211.766 184.007 211.907 183.867 212.082 183.867C212.257 183.867 212.398 184.008 212.398 184.183V192.161C212.398 192.336 212.257 192.477 212.082 192.477Z" fill="white"/>
<path d="M220.336 192.477C220.161 192.477 220.02 192.336 220.02 192.161V184.183C220.02 184.007 220.161 183.867 220.336 183.867C220.512 183.867 220.652 184.008 220.652 184.183V192.161C220.653 192.336 220.512 192.477 220.336 192.477Z" fill="white"/>
<path d="M228.589 192.477C228.414 192.477 228.273 192.336 228.273 192.161V184.183C228.273 184.007 228.414 183.867 228.589 183.867C228.765 183.867 228.905 184.008 228.905 184.183V192.161C228.905 192.336 228.765 192.477 228.589 192.477Z" fill="white"/>
<path d="M260.851 211.395H138.039V226.875H260.851V211.395Z" fill="#FFBF00"/>
<path d="M145.668 223.442C145.494 223.442 145.352 223.301 145.352 223.126V215.148C145.352 214.972 145.494 214.832 145.668 214.832C145.842 214.832 145.984 214.973 145.984 215.148V223.126C145.984 223.301 145.842 223.442 145.668 223.442Z" fill="white"/>
<path d="M153.921 223.442C153.747 223.442 153.605 223.301 153.605 223.126V215.148C153.605 214.972 153.747 214.832 153.921 214.832C154.095 214.832 154.237 214.973 154.237 215.148V223.126C154.238 223.301 154.095 223.442 153.921 223.442Z" fill="white"/>
<path d="M162.175 223.442C162.001 223.442 161.859 223.301 161.859 223.126V215.148C161.859 214.972 162.001 214.832 162.175 214.832C162.349 214.832 162.491 214.973 162.491 215.148V223.126C162.491 223.301 162.349 223.442 162.175 223.442Z" fill="white"/>
<path d="M170.429 223.442C170.255 223.442 170.113 223.301 170.113 223.126V215.148C170.113 214.972 170.255 214.832 170.429 214.832C170.603 214.832 170.745 214.973 170.745 215.148V223.126C170.746 223.301 170.604 223.442 170.429 223.442Z" fill="white"/>
<path d="M178.687 223.442C178.512 223.442 178.371 223.301 178.371 223.126V215.148C178.371 214.972 178.513 214.832 178.687 214.832C178.862 214.832 179.003 214.973 179.003 215.148V223.126C179.003 223.301 178.861 223.442 178.687 223.442Z" fill="white"/>
<path d="M186.941 223.442C186.766 223.442 186.625 223.301 186.625 223.126V215.148C186.625 214.972 186.767 214.832 186.941 214.832C187.116 214.832 187.257 214.973 187.257 215.148V223.126C187.258 223.301 187.116 223.442 186.941 223.442Z" fill="white"/>
<path d="M195.195 223.442C195.02 223.442 194.879 223.301 194.879 223.126V215.148C194.879 214.972 195.021 214.832 195.195 214.832C195.37 214.832 195.511 214.973 195.511 215.148V223.126C195.511 223.301 195.37 223.442 195.195 223.442Z" fill="white"/>
<path d="M203.449 223.442C203.274 223.442 203.133 223.301 203.133 223.126V215.148C203.133 214.972 203.274 214.832 203.449 214.832C203.624 214.832 203.765 214.973 203.765 215.148V223.126C203.766 223.301 203.624 223.442 203.449 223.442Z" fill="white"/>
<path d="M211.703 223.442C211.528 223.442 211.387 223.301 211.387 223.126V215.148C211.387 214.972 211.528 214.832 211.703 214.832C211.878 214.832 212.019 214.973 212.019 215.148V223.126C212.019 223.301 211.878 223.442 211.703 223.442Z" fill="white"/>
<path d="M219.957 223.442C219.782 223.442 219.641 223.301 219.641 223.126V215.148C219.641 214.972 219.782 214.832 219.957 214.832C220.132 214.832 220.273 214.973 220.273 215.148V223.126C220.274 223.301 220.133 223.442 219.957 223.442Z" fill="white"/>
<path d="M228.214 223.442C228.039 223.442 227.898 223.301 227.898 223.126V215.148C227.898 214.972 228.039 214.832 228.214 214.832C228.389 214.832 228.53 214.973 228.53 215.148V223.126C228.53 223.301 228.389 223.442 228.214 223.442Z" fill="white"/>
<path d="M236.468 223.442C236.293 223.442 236.152 223.301 236.152 223.126V215.148C236.152 214.972 236.293 214.832 236.468 214.832C236.643 214.832 236.784 214.973 236.784 215.148V223.126C236.785 223.301 236.644 223.442 236.468 223.442Z" fill="white"/>
<path d="M244.722 223.442C244.547 223.442 244.406 223.301 244.406 223.126V215.148C244.406 214.972 244.547 214.832 244.722 214.832C244.897 214.832 245.038 214.973 245.038 215.148V223.126C245.038 223.301 244.897 223.442 244.722 223.442Z" fill="white"/>
<path d="M252.976 223.442C252.801 223.442 252.66 223.301 252.66 223.126V215.148C252.66 214.972 252.801 214.832 252.976 214.832C253.152 214.832 253.292 214.973 253.292 215.148V223.126C253.293 223.301 253.152 223.442 252.976 223.442Z" fill="white"/>
<path d="M253.098 226.871H130.285V242.351H253.098V226.871Z" fill="#FFBF00"/>
<path d="M137.914 238.915C137.74 238.915 137.598 238.774 137.598 238.599V230.621C137.598 230.446 137.74 230.305 137.914 230.305C138.088 230.305 138.23 230.446 138.23 230.621V238.599C138.23 238.774 138.088 238.915 137.914 238.915Z" fill="white"/>
<path d="M146.168 238.915C145.994 238.915 145.852 238.774 145.852 238.599V230.621C145.852 230.446 145.994 230.305 146.168 230.305C146.342 230.305 146.484 230.446 146.484 230.621V238.599C146.484 238.774 146.342 238.915 146.168 238.915Z" fill="white"/>
<path d="M154.421 238.915C154.247 238.915 154.105 238.774 154.105 238.599V230.621C154.105 230.446 154.247 230.305 154.421 230.305C154.595 230.305 154.737 230.446 154.737 230.621V238.599C154.737 238.774 154.596 238.915 154.421 238.915Z" fill="white"/>
<path d="M162.679 238.915C162.505 238.915 162.363 238.774 162.363 238.599V230.621C162.363 230.446 162.505 230.305 162.679 230.305C162.854 230.305 162.995 230.446 162.995 230.621V238.599C162.995 238.774 162.853 238.915 162.679 238.915Z" fill="white"/>
<path d="M170.933 238.915C170.759 238.915 170.617 238.774 170.617 238.599V230.621C170.617 230.446 170.759 230.305 170.933 230.305C171.108 230.305 171.249 230.446 171.249 230.621V238.599C171.25 238.774 171.108 238.915 170.933 238.915Z" fill="white"/>
<path d="M179.187 238.915C179.013 238.915 178.871 238.774 178.871 238.599V230.621C178.871 230.446 179.013 230.305 179.187 230.305C179.362 230.305 179.503 230.446 179.503 230.621V238.599C179.503 238.774 179.362 238.915 179.187 238.915Z" fill="white"/>
<path d="M187.441 238.915C187.266 238.915 187.125 238.774 187.125 238.599V230.621C187.125 230.446 187.267 230.305 187.441 230.305C187.616 230.305 187.757 230.446 187.757 230.621V238.599C187.758 238.774 187.616 238.915 187.441 238.915Z" fill="white"/>
<path d="M195.695 238.915C195.52 238.915 195.379 238.774 195.379 238.599V230.621C195.379 230.446 195.52 230.305 195.695 230.305C195.87 230.305 196.011 230.446 196.011 230.621V238.599C196.011 238.774 195.87 238.915 195.695 238.915Z" fill="white"/>
<path d="M203.949 238.915C203.774 238.915 203.633 238.774 203.633 238.599V230.621C203.633 230.446 203.774 230.305 203.949 230.305C204.124 230.305 204.265 230.446 204.265 230.621V238.599C204.265 238.774 204.124 238.915 203.949 238.915Z" fill="white"/>
<path d="M212.203 238.915C212.028 238.915 211.887 238.774 211.887 238.599V230.621C211.887 230.446 212.028 230.305 212.203 230.305C212.378 230.305 212.519 230.446 212.519 230.621V238.599C212.52 238.774 212.379 238.915 212.203 238.915Z" fill="white"/>
<path d="M220.461 238.915C220.286 238.915 220.145 238.774 220.145 238.599V230.621C220.145 230.446 220.286 230.305 220.461 230.305C220.636 230.305 220.777 230.446 220.777 230.621V238.599C220.777 238.774 220.636 238.915 220.461 238.915Z" fill="white"/>
<path d="M228.714 238.915C228.539 238.915 228.398 238.774 228.398 238.599V230.621C228.398 230.446 228.539 230.305 228.714 230.305C228.889 230.305 229.03 230.446 229.03 230.621V238.599C229.03 238.774 228.889 238.915 228.714 238.915Z" fill="white"/>
<path d="M236.968 238.915C236.793 238.915 236.652 238.774 236.652 238.599V230.621C236.652 230.446 236.793 230.305 236.968 230.305C237.144 230.305 237.284 230.446 237.284 230.621V238.599C237.284 238.774 237.144 238.915 236.968 238.915Z" fill="white"/>
<path d="M245.222 238.915C245.047 238.915 244.906 238.774 244.906 238.599V230.621C244.906 230.446 245.047 230.305 245.222 230.305C245.398 230.305 245.538 230.446 245.538 230.621V238.599C245.538 238.774 245.397 238.915 245.222 238.915Z" fill="white"/>
<path d="M266.703 257.832H143.891V273.312H266.703V257.832Z" fill="#FFBF00"/>
<path d="M151.523 269.876C151.349 269.876 151.207 269.735 151.207 269.56V261.582C151.207 261.406 151.349 261.266 151.523 261.266C151.697 261.266 151.839 261.407 151.839 261.582V269.56C151.839 269.735 151.697 269.876 151.523 269.876Z" fill="white"/>
<path d="M159.777 269.876C159.603 269.876 159.461 269.735 159.461 269.56V261.582C159.461 261.406 159.603 261.266 159.777 261.266C159.951 261.266 160.093 261.407 160.093 261.582V269.56C160.093 269.735 159.951 269.876 159.777 269.876Z" fill="white"/>
<path d="M168.031 269.876C167.857 269.876 167.715 269.735 167.715 269.56V261.582C167.715 261.406 167.857 261.266 168.031 261.266C168.205 261.266 168.347 261.407 168.347 261.582V269.56C168.347 269.735 168.206 269.876 168.031 269.876Z" fill="white"/>
<path d="M176.289 269.876C176.115 269.876 175.973 269.735 175.973 269.56V261.582C175.973 261.406 176.115 261.266 176.289 261.266C176.464 261.266 176.605 261.407 176.605 261.582V269.56C176.605 269.735 176.463 269.876 176.289 269.876Z" fill="white"/>
<path d="M184.543 269.876C184.368 269.876 184.227 269.735 184.227 269.56V261.582C184.227 261.406 184.369 261.266 184.543 261.266C184.718 261.266 184.859 261.407 184.859 261.582V269.56C184.859 269.735 184.717 269.876 184.543 269.876Z" fill="white"/>
<path d="M192.796 269.876C192.621 269.876 192.48 269.735 192.48 269.56V261.582C192.48 261.406 192.622 261.266 192.796 261.266C192.971 261.266 193.112 261.407 193.112 261.582V269.56C193.112 269.735 192.971 269.876 192.796 269.876Z" fill="white"/>
<path d="M201.05 269.876C200.875 269.876 200.734 269.735 200.734 269.56V261.582C200.734 261.406 200.875 261.266 201.05 261.266C201.225 261.266 201.366 261.407 201.366 261.582V269.56C201.366 269.735 201.225 269.876 201.05 269.876Z" fill="white"/>
<path d="M209.304 269.876C209.129 269.876 208.988 269.735 208.988 269.56V261.582C208.988 261.406 209.129 261.266 209.304 261.266C209.479 261.266 209.62 261.407 209.62 261.582V269.56C209.621 269.735 209.479 269.876 209.304 269.876Z" fill="white"/>
<path d="M217.558 269.876C217.383 269.876 217.242 269.735 217.242 269.56V261.582C217.242 261.406 217.383 261.266 217.558 261.266C217.733 261.266 217.874 261.407 217.874 261.582V269.56C217.874 269.735 217.733 269.876 217.558 269.876Z" fill="white"/>
<path d="M225.816 269.876C225.641 269.876 225.5 269.735 225.5 269.56V261.582C225.5 261.406 225.641 261.266 225.816 261.266C225.991 261.266 226.132 261.407 226.132 261.582V269.56C226.132 269.735 225.991 269.876 225.816 269.876Z" fill="white"/>
<path d="M234.07 269.876C233.895 269.876 233.754 269.735 233.754 269.56V261.582C233.754 261.406 233.895 261.266 234.07 261.266C234.245 261.266 234.386 261.407 234.386 261.582V269.56C234.387 269.735 234.245 269.876 234.07 269.876Z" fill="white"/>
<path d="M242.324 269.876C242.149 269.876 242.008 269.735 242.008 269.56V261.582C242.008 261.406 242.149 261.266 242.324 261.266C242.499 261.266 242.64 261.407 242.64 261.582V269.56C242.64 269.735 242.499 269.876 242.324 269.876Z" fill="white"/>
<path d="M250.578 269.876C250.403 269.876 250.262 269.735 250.262 269.56V261.582C250.262 261.406 250.403 261.266 250.578 261.266C250.753 261.266 250.894 261.407 250.894 261.582V269.56C250.894 269.735 250.753 269.876 250.578 269.876Z" fill="white"/>
<path d="M258.832 269.876C258.656 269.876 258.516 269.735 258.516 269.56V261.582C258.516 261.406 258.657 261.266 258.832 261.266C259.007 261.266 259.148 261.407 259.148 261.582V269.56C259.148 269.735 259.007 269.876 258.832 269.876Z" fill="white"/>
<path d="M228.591 196.23H125.265C125.091 196.23 124.949 196.089 124.949 195.914C124.949 195.739 125.091 195.598 125.265 195.598H228.591C228.767 195.598 228.907 195.739 228.907 195.914C228.907 196.089 228.767 196.23 228.591 196.23Z" fill="#FF6D00"/>
<path d="M250.07 227.187H143.89C143.716 227.187 143.574 227.046 143.574 226.871C143.574 226.696 143.716 226.555 143.89 226.555H250.07C250.245 226.555 250.386 226.696 250.386 226.871C250.386 227.046 250.245 227.187 250.07 227.187Z" fill="#FF6D00"/>
<path d="M243.289 242.667H137.109C136.935 242.667 136.793 242.526 136.793 242.351C136.793 242.176 136.935 242.035 137.109 242.035H243.289C243.465 242.035 243.605 242.176 243.605 242.351C243.605 242.526 243.464 242.667 243.289 242.667Z" fill="#FF6D00"/>
<path d="M246.88 258.152H147.402C147.228 258.152 147.086 258.011 147.086 257.836C147.086 257.661 147.228 257.52 147.402 257.52H246.88C247.056 257.52 247.196 257.661 247.196 257.836C247.196 258.011 247.056 258.152 246.88 258.152Z" fill="#FF6D00"/>
<path d="M255.117 273.628H147.566C147.392 273.628 147.25 273.487 147.25 273.312C147.25 273.137 147.392 272.996 147.566 272.996H255.117C255.293 272.996 255.433 273.137 255.433 273.312C255.433 273.488 255.293 273.628 255.117 273.628Z" fill="#FF6D00"/>
<path d="M239.292 211.71H141.336C141.162 211.71 141.02 211.569 141.02 211.394C141.02 211.218 141.162 211.078 141.336 211.078H239.292C239.468 211.078 239.608 211.219 239.608 211.394C239.608 211.569 239.468 211.71 239.292 211.71Z" fill="#FF6D00"/>
<path d="M68.5552 259.12C67.8972 259.879 67.2652 260.714 66.6322 261.574C64.7852 264.079 63.0392 266.988 61.4202 270.049C57.9542 276.551 55.0442 283.686 53.0462 288.796C53.0462 288.796 15.3742 293.426 -0.0078125 281.054C5.96319 268.758 27.6702 277.487 43.3062 264.963C46.1402 262.686 48.7962 259.726 51.0732 255.779C52.1102 254.059 53.0462 252.186 53.9072 250.086L68.5552 259.12Z" fill="#FFA069"/>
<path d="M61.4202 270.051C58.9662 274.656 56.7902 279.589 55.0192 283.89C54.2852 285.661 53.6282 287.305 53.0462 288.798C53.0462 288.798 15.3742 293.428 -0.0078125 281.056C0.523188 279.993 1.15619 279.057 1.88919 278.298C9.70719 270.126 29.0362 276.401 43.3052 264.965C47.3782 268.913 56.3092 270.557 61.4202 270.051Z" fill="#5C5C5C"/>
<path d="M55.0192 283.889C54.2852 285.66 53.6282 287.304 53.0462 288.797C53.0462 288.797 15.3742 293.427 -0.0078125 281.055C0.523188 279.992 1.15619 279.056 1.88919 278.297C10.4402 283.358 30.8072 289 55.0192 283.889Z" fill="#0F0F0F"/>
<path d="M17.3816 283.216C17.3706 283.216 17.3596 283.216 17.3486 283.213C17.1746 283.196 17.0496 283.04 17.0666 282.867C17.4036 279.692 15.8546 276.579 13.1216 274.933C12.9726 274.842 12.9236 274.646 13.0146 274.498C13.1036 274.347 13.2986 274.3 13.4486 274.389C16.3916 276.163 18.0586 279.515 17.6966 282.93C17.6796 283.095 17.5426 283.216 17.3816 283.216Z" fill="white"/>
<path d="M17.4297 277.622C17.2617 277.622 17.1227 277.491 17.1137 277.321C17.1047 277.148 17.2397 277 17.4137 276.99C27.5747 276.479 37.5657 273.459 46.3087 268.256C46.4557 268.167 46.6517 268.212 46.7427 268.367C46.8317 268.515 46.7827 268.71 46.6327 268.799C37.8007 274.054 27.7097 277.106 17.4467 277.622C17.4397 277.622 17.4347 277.622 17.4297 277.622Z" fill="white"/>
<path d="M68.5562 259.119C67.8982 259.878 67.2662 260.713 66.6332 261.573L51.0742 255.779C52.1112 254.059 53.0472 252.186 53.9082 250.086L68.5562 259.119Z" fill="#151515"/>
<path d="M140.961 93.8535C140.961 93.8535 132.322 87.1315 124.813 90.5835C117.304 94.0355 112.52 111.234 112.52 111.234C112.52 111.234 115.063 112.687 117.607 107.479C120.15 102.271 120.696 101.567 120.696 101.567C120.696 101.567 123.179 107.177 127.66 104.149C127.599 108.751 129.537 111.234 132.081 110.931C131.173 107.661 130.385 98.0805 136.562 100.509L140.961 93.8535Z" fill="#FFA069"/>
<path d="M120.515 100.827C120.375 100.827 120.247 100.733 120.21 100.592C119.81 99.0904 119.9 96.2244 120.671 94.5124C120.741 94.3514 120.928 94.2874 121.088 94.3544C121.247 94.4264 121.318 94.6144 121.246 94.7744C120.552 96.3164 120.448 99.0334 120.82 100.43C120.866 100.598 120.766 100.771 120.596 100.818C120.569 100.824 120.542 100.827 120.515 100.827Z" fill="#E43D4E"/>
<path d="M128.346 103.823C128.25 103.823 128.154 103.779 128.091 103.695C127.987 103.557 128.017 103.356 128.156 103.253C129.653 102.141 130.147 101.024 129.851 100.54C129.675 100.248 129.458 100.078 129.205 100.031C128.82 99.9716 128.313 100.167 127.732 100.624C126.978 101.214 126.025 101.343 125.244 100.955C124.689 100.681 123.761 99.9096 123.79 97.8266C123.793 97.6536 123.933 97.5156 124.106 97.5156H124.11C124.286 97.5186 124.425 97.6616 124.423 97.8366C124.406 99.1216 124.797 100.028 125.525 100.389C126.089 100.668 126.784 100.567 127.342 100.125C128.077 99.5466 128.742 99.2966 129.317 99.4106C129.751 99.4866 130.121 99.7636 130.392 100.212C130.936 101.106 130.19 102.532 128.534 103.762C128.478 103.803 128.411 103.823 128.346 103.823Z" fill="#E43D4E"/>
<path d="M175.621 84.0244L147.521 61.1014C140.7 55.5374 140.394 45.2204 146.872 39.2614L168.555 19.3164L181.313 38.8964L173.533 46.2224C170.518 49.0614 170.805 53.9364 174.132 56.4024L184.381 63.9994L175.621 84.0244Z" fill="#5C5C5C"/>
<path d="M192.879 3.74379C194.759 0.897789 197.138 -0.495215 198.855 0.291785C200.572 1.07879 198.855 3.28679 198.855 3.28679C198.855 3.28679 200.935 0.13479 203.479 1.90879C206.023 3.68279 203.116 6.46879 203.116 6.46879C203.116 6.46879 205.841 3.56179 207.597 5.13679C209.353 6.71079 207.597 8.97278 207.597 8.97278C207.597 8.97278 210.201 8.28579 211.049 10.5268C211.897 12.7678 208.312 15.6988 208.312 15.6988L195.965 12.9988L192.879 3.74379Z" fill="#FFA069"/>
<path d="M169.688 76.632C169.626 76.632 169.565 76.615 169.51 76.578C169.364 76.479 169.327 76.282 169.426 76.138C170.523 74.542 171.536 70.569 170.36 66.73C169.332 63.37 166.916 60.919 163.178 59.446C159.094 57.838 156.828 56.009 156.255 53.852C155.521 51.107 157.609 48.187 160.006 45.187C161.55 43.252 163.969 39.596 162.81 36.833C162.007 34.926 159.626 33.76 155.729 33.364C155.556 33.346 155.43 33.191 155.447 33.018C155.462 32.845 155.62 32.7 155.793 32.736C159.936 33.156 162.493 34.451 163.393 36.585C164.347 38.858 163.319 42.05 160.5 45.581C158.21 48.449 156.208 51.226 156.865 53.687C157.384 55.636 159.526 57.326 163.41 58.856C167.281 60.381 169.893 63.039 170.965 66.542C172.203 70.582 171.116 74.794 169.949 76.491C169.888 76.586 169.789 76.632 169.688 76.632Z" fill="#0F0F0F"/>
<path d="M170.969 26.4603C165.65 25.0793 163.874 19.9923 165.973 16.3593C168.072 12.7253 171.342 12.3223 173.866 13.9363C172.514 4.89226 182.688 0.694254 188.582 6.34625C189.874 1.34025 200.048 1.90525 200.29 12.3213C208.4 8.41925 218.539 22.6562 205.432 36.5863C203.883 38.2323 203.068 40.4383 203.271 42.6883C203.582 46.1453 204.086 50.5533 204.086 50.5533L189.642 34.7313L170.969 26.4603Z" fill="#151515"/>
<path d="M189.793 52.5953L191.134 48.9773L190.982 49.0783C190.248 49.4833 187.086 51.2283 183.164 52.0133C181.266 52.4183 179.344 51.5073 178.433 49.7873C174.461 42.2223 171.501 33.1143 170.969 26.4603C173.373 27.1683 179.369 25.7773 181.14 21.9062C181.494 24.0312 185.314 26.5113 188.224 22.8173C187.44 27.8523 192.753 31.6723 192.753 31.6723C192.753 31.6723 197.18 25.1703 200.141 29.7243C203.126 34.2533 199.256 37.2383 199.256 37.2383L208.313 55.8842H188.579L189.793 52.5953Z" fill="#FFA069"/>
<path d="M175.62 31.8548C175.595 31.8548 175.568 31.8518 175.541 31.8448C175.373 31.8028 175.272 31.6298 175.314 31.4588C175.853 29.3418 177.589 27.7028 179.739 27.2888C179.905 27.2638 180.077 27.3698 180.11 27.5408C180.142 27.7118 180.031 27.8768 179.858 27.9118C177.948 28.2798 176.406 29.7328 175.927 31.6178C175.889 31.7578 175.761 31.8548 175.62 31.8548Z" fill="#151515"/>
<path d="M194.336 35.4901C194.301 35.4901 194.264 35.4851 194.23 35.4731C194.065 35.4131 193.981 35.2331 194.037 35.0681C194.679 33.2691 195.853 31.7502 197.427 30.6732C197.57 30.5742 197.766 30.6092 197.867 30.7572C197.966 30.9002 197.929 31.0981 197.783 31.1971C196.32 32.1981 195.231 33.6111 194.635 35.2811C194.588 35.4081 194.467 35.4901 194.336 35.4901Z" fill="#151515"/>
<path d="M173.746 33.6602C171.761 35.4872 170.999 38.5112 170.71 40.3772C170.565 41.3152 171.285 42.1512 172.234 42.1782C173.548 42.2162 175.484 42.0942 177.527 41.3512L173.746 33.6602Z" fill="#FFA069"/>
<path d="M181.316 44.8608C183.033 43.8468 184.275 42.1908 184.768 40.2578C185.968 41.2328 186.184 42.9828 185.256 44.2198C184.328 45.4578 182.588 45.7408 181.316 44.8608Z" fill="#E43D4E"/>
<path d="M182.178 35.2623C182.001 35.4643 181.824 35.6673 181.621 35.8193C180.305 37.0083 178.56 37.6153 176.763 37.4643C176.662 35.3643 177.421 33.4163 178.762 31.9743C179.976 30.6583 181.672 29.7483 183.569 29.5703C184.05 31.5693 183.519 33.6943 182.178 35.2623Z" fill="white"/>
<path d="M181.621 35.8216C180.305 37.0106 178.56 37.6176 176.763 37.4666C176.662 35.3666 177.421 33.4186 178.762 31.9766C180.356 32.6086 181.495 34.0756 181.621 35.8216Z" fill="#151515"/>
<path d="M195.966 45.3828C195.966 45.3828 195.688 49.8358 189.793 52.5928L191.134 48.9748C193.664 47.5838 195.966 45.3828 195.966 45.3828Z" fill="#151515"/>
<path d="M172.411 18.5048C171.321 18.5048 170.321 18.1838 169.387 17.8848C168.426 17.5738 167.519 17.2898 166.635 17.3808C166.472 17.4328 166.306 17.2768 166.287 17.1018C166.267 16.9288 166.393 16.7738 166.566 16.7538C167.572 16.6328 168.55 16.9518 169.58 17.2828C171.351 17.8508 173.177 18.4418 175.438 16.8108C177.16 15.5678 177.452 13.5228 177.758 11.3578C178.2 8.25479 178.657 5.04279 183.529 4.33879C183.694 4.29979 183.86 4.43479 183.887 4.60779C183.912 4.78079 183.791 4.94079 183.618 4.96579C179.215 5.60079 178.812 8.43979 178.385 11.4468C178.071 13.6478 177.75 15.9238 175.808 17.3248C174.578 18.2108 173.454 18.5048 172.411 18.5048Z" fill="#5C5C5C"/>
<path d="M203.538 37.8027C203.424 37.8027 203.316 37.7407 203.259 37.6317C203.217 37.5497 202.251 35.5367 204.947 29.4437C206.093 26.8517 206.076 24.6707 204.898 23.3017C203.816 22.0417 201.822 21.6287 199.687 22.2097C194.911 23.5117 191.731 22.3207 189.369 18.3457C188.576 17.0117 187.565 16.2437 186.367 16.0577C184.484 15.7667 182.093 16.8907 179.397 19.2967C174.999 23.2277 171.273 24.6137 167.671 23.6697C167.5 23.6247 167.399 23.4527 167.444 23.2847C167.489 23.1137 167.679 23.0177 167.829 23.0567C171.221 23.9487 174.754 22.5997 178.977 18.8267C181.855 16.2547 184.378 15.1257 186.463 15.4317C187.856 15.6467 189.018 16.5167 189.912 18.0237C192.131 21.7597 195.009 22.8217 199.518 21.6007C201.907 20.9487 204.138 21.4477 205.376 22.8877C206.723 24.4517 206.775 26.8707 205.524 29.6997C202.987 35.4317 203.814 37.3297 203.824 37.3487C203.898 37.5047 203.834 37.6927 203.678 37.7687C203.632 37.7927 203.585 37.8027 203.538 37.8027Z" fill="#5C5C5C"/>
<path d="M198.408 19.6271C197.173 19.6271 195.89 19.1651 194.596 17.8981C192.387 15.7341 193.257 13.0951 194.097 10.5431C194.846 8.27508 195.55 6.13308 194.095 4.43308C193.981 4.30208 193.996 4.10208 194.129 3.98808C194.26 3.87208 194.458 3.88709 194.574 4.02309C196.262 5.99209 195.468 8.40608 194.697 10.7411C193.882 13.2191 193.111 15.5591 195.041 17.4491C197.919 20.2731 200.607 18.6871 203.204 17.1521C204.842 16.1861 206.399 15.2521 207.822 15.7041C208.712 15.9761 209.443 16.7441 210.063 18.0511C210.137 18.2091 210.07 18.3991 209.912 18.4741C209.747 18.5431 209.564 18.4791 209.49 18.3241C208.954 17.1851 208.346 16.5251 207.637 16.3081C206.476 15.9521 205.045 16.8021 203.526 17.6991C202.003 18.5941 200.256 19.6271 198.408 19.6271Z" fill="#5C5C5C"/>
<path d="M188.306 11.109C188.276 11.109 188.247 11.106 188.217 11.106C187.678 11.084 187.261 10.785 187.078 10.283C186.787 9.50197 187.088 8.15797 188.415 6.92297L188.689 6.66797L188.894 6.98197C189.833 8.41297 190.11 9.62297 189.675 10.392C189.416 10.85 188.922 11.109 188.306 11.109ZM188.573 7.65997C187.694 8.60397 187.479 9.54797 187.671 10.064C187.767 10.326 187.96 10.462 188.242 10.474C188.504 10.467 188.919 10.442 189.124 10.081C189.26 9.84097 189.46 9.14197 188.573 7.65997Z" fill="#5C5C5C"/>
<path d="M198.81 16.6261C198.546 16.6261 198.264 16.5541 197.985 16.4111C197.503 16.1641 197.253 15.7191 197.293 15.1851C197.36 14.3551 198.195 13.2631 199.915 12.6941L200.271 12.5781L200.328 12.9491C200.58 14.6421 200.323 15.8571 199.607 16.3731C199.371 16.5421 199.099 16.6261 198.81 16.6261ZM199.752 13.4321C198.559 13.9211 197.968 14.6871 197.926 15.2361C197.904 15.5131 198.02 15.7201 198.272 15.8491C198.484 15.9601 198.897 16.1091 199.235 15.8611C199.46 15.7001 199.935 15.1491 199.752 13.4321Z" fill="#5C5C5C"/>
<path d="M172.646 42.4981C172.498 42.4981 172.357 42.4961 172.221 42.4931C171.673 42.4781 171.156 42.2291 170.805 41.8091C170.464 41.3991 170.313 40.8581 170.392 40.3291C170.664 38.5801 171.432 35.3581 173.527 33.4261C173.655 33.3051 173.855 33.3121 173.974 33.4431C174.093 33.5721 174.085 33.7721 173.957 33.8901C172.003 35.6911 171.276 38.7571 171.017 40.4251C170.965 40.7781 171.061 41.1271 171.291 41.4031C171.525 41.6821 171.869 41.8501 172.24 41.8601C173.5 41.9091 175.407 41.7831 177.416 41.0521C177.579 40.9831 177.759 41.0741 177.821 41.2401C177.881 41.4061 177.797 41.5861 177.633 41.6451C175.744 42.3351 173.941 42.4981 172.646 42.4981Z" fill="#151515"/>
<path d="M211.351 66.7772V59.1762C211.351 56.9342 209.534 55.1172 207.292 55.1172H185.325C183.083 55.1172 181.266 56.9342 181.266 59.1762V68.3412C174.076 76.8642 169.941 87.5622 169.473 98.7642C166.442 97.1512 163.157 96.0182 159.727 95.4912C156.905 95.0572 154.084 95.4702 151.564 96.5792L143.439 91.8882C142.358 91.2642 140.977 91.6342 140.353 92.7152L134.897 102.164C134.273 103.245 134.644 104.626 135.724 105.25L142.613 109.227C142.304 113.012 143.392 116.86 145.991 119.863C152.565 127.456 164.313 134 175.055 136.668C175.22 136.709 175.395 136.735 175.562 136.773L175.055 139.575L213.53 150.233C218.443 131.007 220.337 106.803 218.224 91.7142L219.263 88.9692C222.575 80.2202 218.689 71.0422 211.351 66.7772Z" fill="#5C5C5C"/>
<path d="M213.704 136.293C207.999 136.293 206.88 133.086 205.481 129.086C204.25 125.568 202.857 121.578 197.977 118.403C192.927 115.122 186.777 118.208 180.828 121.2C174.305 124.471 167.568 127.861 162.782 122.095C157.977 116.299 160.333 110.947 162.229 106.646C163.941 102.755 165.295 99.6811 161.639 97.2101C161.496 97.1111 161.456 96.9161 161.555 96.7701C161.654 96.6271 161.849 96.5901 161.995 96.6861C166.087 99.4531 164.495 103.07 162.808 106.9C160.888 111.258 158.714 116.197 163.272 121.69C167.734 127.076 173.958 123.943 180.545 120.635C186.653 117.562 192.973 114.389 198.324 117.875C203.384 121.166 204.879 125.443 206.079 128.88C207.527 133.018 208.584 136.02 214.724 135.627C214.899 135.634 215.05 135.748 215.06 135.923C215.07 136.098 214.936 136.247 214.763 136.259C214.393 136.28 214.04 136.293 213.704 136.293Z" fill="#0F0F0F"/>
<path d="M207.114 114.771C207.013 114.771 206.914 114.722 206.852 114.633C204.989 111.903 204.258 105.771 207.062 98.7614C208.559 95.0184 208.24 91.3514 206.283 89.8494C204.217 88.2564 200.707 89.1454 196.4 92.3524C189.848 97.2274 186.438 96.1894 184.99 95.1374C182.912 93.6254 182.352 90.3494 183.559 86.7884C185.046 82.3984 185.014 79.0304 183.468 77.5484C182.168 76.3004 179.809 76.3274 176.461 77.6174C176.301 77.6844 176.113 77.6004 176.053 77.4374C175.989 77.2744 176.07 77.0914 176.233 77.0294C179.833 75.6354 182.41 75.6584 183.905 77.0914C186.277 79.3644 185.081 84.2684 184.157 86.9914C183.04 90.2824 183.512 93.2794 185.363 94.6254C187.584 96.2484 191.473 95.2304 196.024 91.8434C202.166 87.2724 205.329 88.3124 206.668 89.3484C208.882 91.0504 209.275 94.9274 207.649 98.9994C204.746 106.253 205.895 112.111 207.375 114.278C207.474 114.421 207.437 114.619 207.291 114.718C207.238 114.754 207.176 114.771 207.114 114.771Z" fill="#0F0F0F"/>
<path d="M182.768 113.246C182.761 113.246 182.756 113.246 182.748 113.246C182.612 113.236 182.499 113.145 182.464 113.014C181.55 109.699 174.073 102.593 170.471 99.9831C170.33 99.8791 170.298 99.6822 170.399 99.5412C170.498 99.3982 170.696 99.3662 170.842 99.4692C173.824 101.631 181.014 108.181 182.783 112.067L196.77 78.4112C196.834 78.2512 197.022 78.1692 197.183 78.2412C197.344 78.3072 197.42 78.4932 197.354 78.6532L183.061 113.05C183.01 113.169 182.894 113.246 182.768 113.246Z" fill="white"/>
<path d="M148.251 99.1976C148.198 99.1976 148.144 99.1857 148.094 99.1557L141.311 95.2816C141.159 95.1956 141.107 95.0027 141.194 94.8517C141.278 94.6957 141.472 94.6397 141.625 94.7327L148.408 98.6066C148.56 98.6926 148.612 98.8857 148.525 99.0367C148.467 99.1407 148.361 99.1976 148.251 99.1976Z" fill="#0F0F0F"/>
<path d="M146.318 102.624C146.265 102.624 146.21 102.612 146.161 102.582L139.378 98.705C139.226 98.618 139.174 98.426 139.261 98.273C139.348 98.123 139.539 98.066 139.692 98.157L146.475 102.034C146.627 102.12 146.679 102.313 146.592 102.466C146.534 102.567 146.428 102.624 146.318 102.624Z" fill="#0F0F0F"/>
<path d="M144.352 105.762C144.299 105.762 144.244 105.75 144.195 105.72L137.413 101.844C137.261 101.757 137.209 101.565 137.296 101.412C137.381 101.259 137.573 101.202 137.727 101.296L144.509 105.172C144.661 105.259 144.713 105.451 144.626 105.604C144.569 105.706 144.462 105.762 144.352 105.762Z" fill="#0F0F0F"/>
<path d="M185.809 66.0134C185.797 66.0134 185.784 66.0134 185.772 66.0104C185.599 65.9904 185.473 65.8324 185.495 65.6594L186.357 58.4724C186.379 58.2994 186.542 58.1664 186.708 58.1954C186.881 58.2154 187.007 58.3734 186.985 58.5464L186.123 65.7334C186.103 65.8944 185.967 66.0134 185.809 66.0134Z" fill="#0F0F0F"/>
<path d="M192.324 66.0134C192.312 66.0134 192.299 66.0134 192.287 66.0104C192.114 65.9904 191.991 65.8324 192.01 65.6594L192.87 58.4724C192.892 58.2994 193.053 58.1664 193.221 58.1954C193.394 58.2154 193.517 58.3734 193.497 58.5464L192.637 65.7334C192.618 65.8944 192.482 66.0134 192.324 66.0134Z" fill="#0F0F0F"/>
<path d="M198.835 66.0134C198.823 66.0134 198.81 66.0134 198.798 66.0104C198.625 65.9904 198.502 65.8324 198.522 65.6594L199.382 58.4724C199.404 58.2994 199.565 58.1664 199.733 58.1954C199.906 58.2154 200.03 58.3734 200.01 58.5464L199.15 65.7334C199.129 65.8944 198.994 66.0134 198.835 66.0134Z" fill="#0F0F0F"/>
<path d="M205.348 66.0134C205.336 66.0134 205.323 66.0134 205.311 66.0104C205.138 65.9904 205.012 65.8324 205.034 65.6594L205.896 58.4724C205.918 58.2994 206.076 58.1664 206.247 58.1954C206.42 58.2154 206.546 58.3734 206.524 58.5464L205.662 65.7334C205.642 65.8944 205.506 66.0134 205.348 66.0134Z" fill="#0F0F0F"/>
<path d="M213.291 142.193C213.266 142.193 213.239 142.19 213.212 142.183L194.378 137.338C194.21 137.294 194.106 137.123 194.151 136.952C194.196 136.784 194.354 136.671 194.537 136.725L213.371 141.57C213.539 141.614 213.643 141.785 213.598 141.956C213.56 142.1 213.432 142.193 213.291 142.193Z" fill="white"/>
<path d="M200.367 131.964C202.948 129.611 205.022 126.626 206.312 123.21L216.255 96.9492C215.702 113.579 213.043 125.31 200.367 131.964Z" fill="#151515"/>
<path d="M185.226 138.109C185.112 138.109 185.001 138.109 184.887 138.106C182.186 138.069 179.691 137.861 177.475 137.491C177.302 137.464 177.186 137.301 177.216 137.128C177.243 136.955 177.406 136.849 177.579 136.868C179.766 137.231 182.227 137.436 184.897 137.473C185.006 137.476 185.115 137.476 185.226 137.476C194.422 137.476 202.746 131.736 206.009 123.109L216.816 94.5484C216.88 94.3854 217.058 94.3034 217.224 94.3634C217.387 94.4254 217.471 94.6074 217.409 94.7714L206.602 123.332C203.245 132.207 194.682 138.109 185.226 138.109Z" fill="white"/>
<path d="M112.433 41.5234C101.591 41.5234 92.8016 50.3124 92.8016 61.1544C92.8016 64.2334 93.5306 67.1364 94.7946 69.7304L86.7656 78.9494L98.6506 75.1254C102.196 78.6224 107.06 80.7854 112.433 80.7854C123.275 80.7854 132.064 71.9964 132.064 61.1544C132.064 50.3114 123.275 41.5234 112.433 41.5234Z" fill="white"/>
<path d="M112.433 81.101C107.227 81.101 102.31 79.107 98.5662 75.483L85.7812 79.599L94.4202 69.679C93.1372 66.976 92.4852 64.11 92.4852 61.153C92.4852 50.156 101.434 41.207 112.432 41.207C123.43 41.207 132.379 50.156 132.379 61.153C132.38 72.153 123.431 81.101 112.433 81.101ZM98.7363 74.764L98.8732 74.9C102.514 78.49 107.329 80.469 112.432 80.469C123.082 80.469 131.747 71.804 131.747 61.153C131.747 50.504 123.082 41.84 112.432 41.84C101.782 41.84 93.1172 50.505 93.1172 61.153C93.1172 64.081 93.7772 66.92 95.0792 69.59L95.1712 69.778L87.7502 78.299L98.7363 74.764Z" fill="#0F0F0F"/>
<path d="M121.592 64.3529C119.914 69.2899 114.551 71.9319 109.614 70.2549C104.677 68.5769 102.034 63.2149 103.712 58.2769C105.39 53.3399 110.752 50.6979 115.69 52.3759C120.628 54.0539 123.269 59.4159 121.592 64.3529Z" fill="#FF6D00"/>
<path d="M122.314 64.5999C120.636 69.5369 115.273 72.1799 110.336 70.5019C105.399 68.8239 102.756 63.4619 104.434 58.5239C106.112 53.5869 111.475 50.9439 116.412 52.6219C121.349 54.2999 123.992 59.6629 122.314 64.5999Z" fill="#FFBF00"/>
<path d="M117.746 59.7669H114.63C114.613 59.0599 113.889 58.9079 113.434 58.9079C113.148 58.9079 112.222 58.9079 112.222 59.4809C112.222 60.7609 117.966 59.4299 117.966 63.0519C117.966 65.2249 116.265 66.0339 114.176 66.1849L114.31 68.4929H112.407L112.525 66.1679C110.588 65.9659 108.785 65.0559 108.785 63.1029H111.902V63.1699C111.918 64.0289 112.879 64.1969 113.368 64.1969C113.84 64.1969 114.766 64.1629 114.766 63.5399C114.766 62.2089 109.022 63.4219 109.022 59.9179C109.022 57.8969 110.588 57.1219 112.526 56.9529L112.408 54.6289H114.311L114.177 56.9369C116.044 57.0879 117.746 57.8969 117.746 59.7669Z" fill="white"/>
<path d="M140.615 118.07H101.809V122.481H140.615C141.833 122.481 142.82 121.494 142.82 120.276C142.821 119.057 141.833 118.07 140.615 118.07Z" fill="#5C5C5C"/>
<path d="M74.6504 78.6094H39.9844L72.2514 122.484H106.917L74.6504 78.6094Z" fill="#5C5C5C"/>
<path d="M75.5688 98.5799C78.7718 103.178 79.8417 106.906 77.9577 106.906C76.0727 106.906 71.9487 103.178 68.7447 98.5799C65.5407 93.9819 64.4718 90.2539 66.3558 90.2539C68.2408 90.2539 72.3648 93.9809 75.5688 98.5799Z" fill="white"/>
<path d="M213.525 150.229C213.525 150.229 211.425 165.308 200.369 180.614L120.117 180.437C120.117 180.437 104.684 207.508 88.618 245.812C87.049 249.556 85.455 253.427 83.887 257.374C82.824 260.056 81.762 262.788 80.699 265.571C80.699 265.571 52.92 255.856 40.168 241.156C40.168 241.156 54.285 186.204 81.508 147.824C86.188 141.221 93.526 137.021 101.596 136.287C117.054 134.82 145.188 133.656 175.067 139.576L213.525 150.229Z" fill="#E43D4E"/>
<path d="M88.6176 245.814C87.0486 249.558 85.4546 253.429 83.8866 257.376C80.3446 248.268 73.3366 222.487 72.4766 203.664L88.6176 245.814Z" fill="#151515"/>
<path d="M55.9095 246.103C55.8895 246.103 55.8695 246.1 55.8505 246.098C55.6785 246.064 55.5665 245.898 55.5995 245.728C57.0575 238.123 62.1905 216.979 78.3225 184.971C98.0975 145.749 134.722 157.413 152.329 163.024L153.31 163.335C171.079 168.983 192.145 166.436 199.144 148.024C199.208 147.859 199.388 147.782 199.554 147.839C199.717 147.901 199.798 148.084 199.737 148.247C192.585 167.049 171.171 169.668 153.118 163.938L152.137 163.627C134.702 158.07 98.4205 146.507 78.8885 185.258C62.7905 217.192 57.6745 238.269 56.2195 245.847C56.1915 245.997 56.0595 246.103 55.9095 246.103Z" fill="#FFBF00"/>
<path d="M146.316 137.793C135.119 139.772 127.676 144.099 121.28 149.589C122.805 159.393 124.393 170.564 123.375 180.434H118.212L110.824 143.695L146.316 137.793Z" fill="#151515"/>
<path d="M116.144 148.128C124.493 179.677 129.224 212.086 130.287 244.698C117.839 252.541 102.912 255.425 88.4659 252.769C71.1349 217.678 65.7469 177.932 73.0579 139.577C74.0189 134.618 76.4729 129.988 80.4459 126.851C80.4969 126.826 80.5219 126.775 80.5729 126.75C83.7859 124.245 87.7829 122.879 91.8569 122.677C116.246 121.488 140.534 126.573 162.419 137.452C146.251 135.984 130.033 139.728 116.144 148.128Z" fill="#E43D4E"/>
<path d="M130.286 244.699C117.838 252.542 102.911 255.426 88.4648 252.77C100.559 244.117 115.84 241.182 130.286 244.699Z" fill="#151515"/>
<path d="M109.634 237.564C109.631 237.564 109.629 237.564 109.627 237.564C109.451 237.559 109.314 237.416 109.318 237.24C110.043 207.96 105.844 178.981 96.8357 151.106C95.5877 147.245 96.0947 143.032 98.2257 139.546C100.363 136.052 103.896 133.676 107.919 133.026C123.372 130.528 138.919 131.121 154.132 134.795C154.303 134.835 154.406 135.005 154.364 135.176C154.324 135.349 154.159 135.46 153.983 135.408C138.85 131.756 123.383 131.168 108.019 133.649C104.178 134.272 100.804 136.542 98.7647 139.878C96.7297 143.203 96.2457 147.226 97.4377 150.915C106.467 178.856 110.677 207.906 109.95 237.256C109.945 237.428 109.806 237.564 109.634 237.564Z" fill="#FFBF00"/>
<path d="M122.62 267.946C118.37 275.865 100.305 296.13 86.4923 293.271C84.3423 292.841 82.7483 290.994 82.5963 288.818C81.6353 275.991 99.3453 272.069 102.026 261.57C102.178 260.988 102.304 260.431 102.406 259.9C104.051 252.082 102.608 246.719 102.608 246.719C102.608 246.719 108.3 243.961 117.763 244.012C117.94 245.935 118.193 248.364 118.547 250.944C119.356 257.093 120.672 264.202 122.62 267.946Z" fill="#FFA069"/>
<path d="M122.622 267.947C118.372 275.866 100.307 296.131 86.4935 293.272C84.3435 292.842 82.7495 290.995 82.5975 288.819C82.5215 287.959 82.5465 287.149 82.6735 286.39C83.9385 275.46 99.5235 271.362 102.028 261.571C102.18 260.989 102.306 260.432 102.408 259.901C106.582 259.749 115.665 257.371 118.549 250.945C119.131 255.372 119.966 260.281 121.13 264.101C121.584 265.595 122.09 266.885 122.622 267.947Z" fill="#5C5C5C"/>
<path d="M122.622 267.948C118.372 275.867 100.307 296.132 86.4935 293.273C84.3435 292.843 82.7495 290.996 82.5975 288.82C82.5215 287.96 82.5465 287.15 82.6735 286.391C83.4835 291.046 90.2385 290.92 97.3475 287.327C104.331 283.785 116.551 272.653 121.13 264.102C121.584 265.596 122.09 266.886 122.622 267.948Z" fill="#0F0F0F"/>
<path d="M97.0968 286.603C96.9438 286.603 96.8098 286.492 96.7838 286.336C96.0738 281.948 92.1588 278.84 87.7508 279.141C87.5578 279.144 87.4248 279.02 87.4148 278.844C87.4028 278.671 87.5348 278.52 87.7088 278.508C87.9148 278.496 88.1188 278.488 88.3218 278.488C92.8298 278.488 96.6788 281.725 97.4088 286.236C97.4358 286.407 97.3188 286.569 97.1468 286.596C97.1298 286.6 97.1128 286.603 97.0968 286.603Z" fill="white"/>
<path d="M93.3039 279.119C93.2309 279.119 93.1569 279.094 93.0979 279.042C92.9659 278.928 92.9509 278.728 93.0649 278.595C95.7839 275.445 98.4639 273.021 100.828 270.884C105.154 266.973 108.28 264.146 108.411 259.79C108.416 259.619 108.557 259.484 108.727 259.484C108.729 259.484 108.733 259.484 108.737 259.484C108.911 259.489 109.048 259.635 109.043 259.81C108.905 264.435 105.694 267.336 101.252 271.353C98.9009 273.478 96.2379 275.887 93.5449 279.01C93.4809 279.082 93.3929 279.119 93.3039 279.119Z" fill="white"/>
<path d="M78.7704 234.931C78.6304 234.931 78.5034 234.84 78.4654 234.699C73.9264 218.135 69.4124 191.847 69.5704 173.65C69.5714 173.477 69.7144 173.336 69.8864 173.336C69.8864 173.336 69.8874 173.336 69.8894 173.336C70.0644 173.339 70.2044 173.479 70.2034 173.655C70.0464 191.795 74.5484 218.011 79.0754 234.531C79.1214 234.699 79.0224 234.874 78.8544 234.919C78.8254 234.928 78.7974 234.931 78.7704 234.931Z" fill="#151515"/>
<path d="M199.894 146.774C199.867 146.774 199.837 146.771 199.81 146.762L174.974 139.881C174.806 139.834 174.707 139.661 174.754 139.493C174.798 139.325 174.979 139.216 175.142 139.273L199.977 146.154C200.145 146.201 200.244 146.374 200.197 146.542C200.16 146.682 200.032 146.774 199.894 146.774Z" fill="#151515"/>
<path d="M173.726 80.7495C173.687 80.7495 173.645 80.7425 173.605 80.7245C173.444 80.6575 173.368 80.4725 173.434 80.3115C173.767 79.5035 176.794 72.3535 180.95 68.2125V63.8785C180.95 63.7035 181.091 63.5625 181.266 63.5625C181.441 63.5625 181.582 63.7035 181.582 63.8785V68.3435C181.582 68.4275 181.547 68.5085 181.488 68.5685C177.374 72.6085 174.348 79.7535 174.016 80.5535C173.968 80.6755 173.85 80.7495 173.726 80.7495Z" fill="#151515"/>
<path d="M80.0598 260.686C80.0288 260.686 79.9978 260.681 79.9668 260.671C66.3088 256.471 53.6438 249.017 43.3438 239.119C43.2178 238.998 43.2128 238.798 43.3338 238.672C43.4568 238.549 43.6578 238.546 43.7808 238.665C54.0118 248.493 66.5878 255.896 80.1518 260.069C80.3188 260.119 80.4128 260.297 80.3618 260.465C80.3208 260.6 80.1958 260.686 80.0598 260.686Z" fill="#FFBF00"/>
<path d="M89.4298 247.93C89.3298 247.93 89.2298 247.883 89.1688 247.792C89.0698 247.649 89.1068 247.451 89.2508 247.352C100.724 239.488 115 237.056 128.431 240.689C128.599 240.736 128.699 240.909 128.653 241.077C128.607 241.245 128.442 241.351 128.265 241.302C115.018 237.714 100.928 240.111 89.6078 247.876C89.5538 247.913 89.4908 247.93 89.4298 247.93Z" fill="#FFBF00"/>
<path d="M126.145 144.314C126.029 144.314 125.918 144.25 125.862 144.139C125.784 143.983 125.847 143.793 126.003 143.716C129.364 142.031 140.938 136.785 154.533 136.785C155.302 136.785 156.077 136.802 156.861 136.837C157.034 136.844 157.17 136.993 157.162 137.168C157.155 137.341 156.997 137.474 156.831 137.469C156.06 137.434 155.292 137.417 154.531 137.417C141.077 137.417 129.615 142.61 126.287 144.278C126.241 144.304 126.193 144.314 126.145 144.314Z" fill="#151515"/>
</svg>
